<svg xmlns="http://www.w3.org/2000/svg" version="1.1" xmlns:xlink="http://www.w3.org/1999/xlink" xmlns:svgjs="http://svgjs.com/svgjs" width="1440" height="560" preserveAspectRatio="none" viewBox="0 0 1440 560"><g mask="url(&quot;#SvgjsMask1012&quot;)" fill="none"><rect width="1440" height="560" x="0" y="0" fill="#0e2a47"></rect><path d="M-46.07 526.39L-46.07 526.39" stroke="#132e65" stroke-width="1.5"></path><path d="M-46.07 526.39L38.1 526.46" stroke="#132e65" stroke-width="1.5"></path><path d="M-46.07 526.39L-79.44 662.4" stroke="#132e65" stroke-width="1.5"></path><path d="M-46.07 526.39L61.38 354.89" stroke="#132e65" stroke-width="1.5"></path><path d="M-46.07 526.39L92.56 686.99" stroke="#132e65" stroke-width="1.5"></path><path d="M-79.44 662.4L-79.44 662.4" stroke="#132e65" stroke-width="1.5"></path><path d="M-79.44 662.4L92.56 686.99" stroke="#132e65" stroke-width="1.5"></path><path d="M-79.44 662.4L38.1 526.46" stroke="#132e65" stroke-width="1.5"></path><path d="M-79.44 662.4L257.8 641.26" stroke="#132e65" stroke-width="1.5"></path><path d="M61.38 354.89L61.38 354.89" stroke="#132e65" stroke-width="1.5"></path><path d="M61.38 354.89L38.1 526.46" stroke="#132e65" stroke-width="1.5"></path><path d="M61.38 354.89L239.71 411.81" stroke="#132e65" stroke-width="1.5"></path><path d="M61.38 354.89L245.85 502.36" stroke="#132e65" stroke-width="1.5"></path><path d="M61.38 354.89L337.72 358.36" stroke="#132e65" stroke-width="1.5"></path><path d="M38.1 526.46L38.1 526.46" stroke="#132e65" stroke-width="1.5"></path><path d="M38.1 526.46L92.56 686.99" stroke="#132e65" stroke-width="1.5"></path><path d="M38.1 526.46L245.85 502.36" stroke="#132e65" stroke-width="1.5"></path><path d="M38.1 526.46L239.71 411.81" stroke="#132e65" stroke-width="1.5"></path><path d="M92.56 686.99L92.56 686.99" stroke="#132e65" stroke-width="1.5"></path><path d="M92.56 686.99L257.8 641.26" stroke="#132e65" stroke-width="1.5"></path><path d="M92.56 686.99L245.85 502.36" stroke="#132e65" stroke-width="1.5"></path><path d="M239.71 411.81L239.71 411.81" stroke="#132e65" stroke-width="1.5"></path><path d="M239.71 411.81L245.85 502.36" stroke="#132e65" stroke-width="1.5"></path><path d="M239.71 411.81L337.72 358.36" stroke="#132e65" stroke-width="1.5"></path><path d="M239.71 411.81L355.39 558.81" stroke="#132e65" stroke-width="1.5"></path><path d="M239.71 411.81L257.8 641.26" stroke="#132e65" stroke-width="1.5"></path><path d="M245.85 502.36L245.85 502.36" stroke="#132e65" stroke-width="1.5"></path><path d="M245.85 502.36L355.39 558.81" stroke="#132e65" stroke-width="1.5"></path><path d="M245.85 502.36L257.8 641.26" stroke="#132e65" stroke-width="1.5"></path><path d="M245.85 502.36L337.72 358.36" stroke="#132e65" stroke-width="1.5"></path><path d="M257.8 641.26L257.8 641.26" stroke="#132e65" stroke-width="1.5"></path><path d="M257.8 641.26L344.46 651.47" stroke="#132e65" stroke-width="1.5"></path><path d="M257.8 641.26L355.39 558.81" stroke="#132e65" stroke-width="1.5"></path><path d="M337.72 358.36L337.72 358.36" stroke="#132e65" stroke-width="1.5"></path><path d="M355.39 558.81L355.39 558.81" stroke="#132e65" stroke-width="1.5"></path><path d="M355.39 558.81L344.46 651.47" stroke="#132e65" stroke-width="1.5"></path><path d="M344.46 651.47L344.46 651.47" stroke="#132e65" stroke-width="1.5"></path><path d="M344.46 651.47L245.85 502.36" stroke="#132e65" stroke-width="1.5"></path><path d="M344.46 651.47L517.76 708.86" stroke="#132e65" stroke-width="1.5"></path><path d="M344.46 651.47L521.52 510.54" stroke="#132e65" stroke-width="1.5"></path><path d="M523.21 381.67L523.21 381.67" stroke="#132e65" stroke-width="1.5"></path><path d="M523.21 381.67L521.52 510.54" stroke="#132e65" stroke-width="1.5"></path><path d="M523.21 381.67L675.98 390.23" stroke="#132e65" stroke-width="1.5"></path><path d="M523.21 381.67L337.72 358.36" stroke="#132e65" stroke-width="1.5"></path><path d="M521.52 510.54L521.52 510.54" stroke="#132e65" stroke-width="1.5"></path><path d="M521.52 510.54L355.39 558.81" stroke="#132e65" stroke-width="1.5"></path><path d="M521.52 510.54L695.58 560.14" stroke="#132e65" stroke-width="1.5"></path><path d="M517.76 708.86L517.76 708.86" stroke="#132e65" stroke-width="1.5"></path><path d="M517.76 708.86L655.56 644.98" stroke="#132e65" stroke-width="1.5"></path><path d="M517.76 708.86L521.52 510.54" stroke="#132e65" stroke-width="1.5"></path><path d="M517.76 708.86L355.39 558.81" stroke="#132e65" stroke-width="1.5"></path><path d="M517.76 708.86L695.58 560.14" stroke="#132e65" stroke-width="1.5"></path><path d="M675.98 390.23L675.98 390.23" stroke="#132e65" stroke-width="1.5"></path><path d="M675.98 390.23L695.58 560.14" stroke="#132e65" stroke-width="1.5"></path><path d="M675.98 390.23L857.36 388.65" stroke="#132e65" stroke-width="1.5"></path><path d="M675.98 390.23L521.52 510.54" stroke="#132e65" stroke-width="1.5"></path><path d="M675.98 390.23L813.19 536.06" stroke="#132e65" stroke-width="1.5"></path><path d="M675.98 390.23L856.06 255.72" stroke="#132e65" stroke-width="1.5"></path><path d="M695.58 560.14L695.58 560.14" stroke="#132e65" stroke-width="1.5"></path><path d="M695.58 560.14L655.56 644.98" stroke="#132e65" stroke-width="1.5"></path><path d="M695.58 560.14L813.19 536.06" stroke="#132e65" stroke-width="1.5"></path><path d="M695.58 560.14L816.69 644.21" stroke="#132e65" stroke-width="1.5"></path><path d="M655.56 644.98L655.56 644.98" stroke="#132e65" stroke-width="1.5"></path><path d="M655.56 644.98L816.69 644.21" stroke="#132e65" stroke-width="1.5"></path><path d="M655.56 644.98L521.52 510.54" stroke="#132e65" stroke-width="1.5"></path><path d="M655.56 644.98L813.19 536.06" stroke="#132e65" stroke-width="1.5"></path><path d="M655.56 644.98L675.98 390.23" stroke="#132e65" stroke-width="1.5"></path><path d="M860.11 111.03L860.11 111.03" stroke="#132e65" stroke-width="1.5"></path><path d="M860.11 111.03L993.99 81.32" stroke="#132e65" stroke-width="1.5"></path><path d="M860.11 111.03L856.06 255.72" stroke="#132e65" stroke-width="1.5"></path><path d="M860.11 111.03L1010.34 214.93" stroke="#132e65" stroke-width="1.5"></path><path d="M856.06 255.72L856.06 255.72" stroke="#132e65" stroke-width="1.5"></path><path d="M856.06 255.72L857.36 388.65" stroke="#132e65" stroke-width="1.5"></path><path d="M856.06 255.72L1010.34 214.93" stroke="#132e65" stroke-width="1.5"></path><path d="M856.06 255.72L992.55 412.38" stroke="#132e65" stroke-width="1.5"></path><path d="M856.06 255.72L993.99 81.32" stroke="#132e65" stroke-width="1.5"></path><path d="M857.36 388.65L857.36 388.65" stroke="#132e65" stroke-width="1.5"></path><path d="M857.36 388.65L992.55 412.38" stroke="#132e65" stroke-width="1.5"></path><path d="M857.36 388.65L813.19 536.06" stroke="#132e65" stroke-width="1.5"></path><path d="M813.19 536.06L813.19 536.06" stroke="#132e65" stroke-width="1.5"></path><path d="M813.19 536.06L816.69 644.21" stroke="#132e65" stroke-width="1.5"></path><path d="M816.69 644.21L816.69 644.21" stroke="#132e65" stroke-width="1.5"></path><path d="M816.69 644.21L857.36 388.65" stroke="#132e65" stroke-width="1.5"></path><path d="M816.69 644.21L675.98 390.23" stroke="#132e65" stroke-width="1.5"></path><path d="M990.59 -92.07L990.59 -92.07" stroke="#132e65" stroke-width="1.5"></path><path d="M990.59 -92.07L993.99 81.32" stroke="#132e65" stroke-width="1.5"></path><path d="M990.59 -92.07L1137.3 80.25" stroke="#132e65" stroke-width="1.5"></path><path d="M990.59 -92.07L860.11 111.03" stroke="#132e65" stroke-width="1.5"></path><path d="M990.59 -92.07L1277.5 -91.23" stroke="#132e65" stroke-width="1.5"></path><path d="M993.99 81.32L993.99 81.32" stroke="#132e65" stroke-width="1.5"></path><path d="M993.99 81.32L1010.34 214.93" stroke="#132e65" stroke-width="1.5"></path><path d="M993.99 81.32L1137.3 80.25" stroke="#132e65" stroke-width="1.5"></path><path d="M1010.34 214.93L1010.34 214.93" stroke="#132e65" stroke-width="1.5"></path><path d="M1010.34 214.93L1110.92 221.04" stroke="#132e65" stroke-width="1.5"></path><path d="M992.55 412.38L992.55 412.38" stroke="#132e65" stroke-width="1.5"></path><path d="M992.55 412.38L1090.73 526.26" stroke="#132e65" stroke-width="1.5"></path><path d="M992.55 412.38L1155.74 397.56" stroke="#132e65" stroke-width="1.5"></path><path d="M992.55 412.38L1010.34 214.93" stroke="#132e65" stroke-width="1.5"></path><path d="M992.55 412.38L813.19 536.06" stroke="#132e65" stroke-width="1.5"></path><path d="M1137.3 80.25L1137.3 80.25" stroke="#132e65" stroke-width="1.5"></path><path d="M1137.3 80.25L1110.92 221.04" stroke="#132e65" stroke-width="1.5"></path><path d="M1110.92 221.04L1110.92 221.04" stroke="#132e65" stroke-width="1.5"></path><path d="M1110.92 221.04L1155.74 397.56" stroke="#132e65" stroke-width="1.5"></path><path d="M1110.92 221.04L993.99 81.32" stroke="#132e65" stroke-width="1.5"></path><path d="M1155.74 397.56L1155.74 397.56" stroke="#132e65" stroke-width="1.5"></path><path d="M1155.74 397.56L1276.37 359.61" stroke="#132e65" stroke-width="1.5"></path><path d="M1155.74 397.56L1090.73 526.26" stroke="#132e65" stroke-width="1.5"></path><path d="M1090.73 526.26L1090.73 526.26" stroke="#132e65" stroke-width="1.5"></path><path d="M1090.73 526.26L1151.62 650.75" stroke="#132e65" stroke-width="1.5"></path><path d="M1151.62 650.75L1151.62 650.75" stroke="#132e65" stroke-width="1.5"></path><path d="M1151.62 650.75L1272.4 695.01" stroke="#132e65" stroke-width="1.5"></path><path d="M1151.62 650.75L1389.14 696.55" stroke="#132e65" stroke-width="1.5"></path><path d="M1277.5 -91.23L1277.5 -91.23" stroke="#132e65" stroke-width="1.5"></path><path d="M1277.5 -91.23L1304.88 38.16" stroke="#132e65" stroke-width="1.5"></path><path d="M1277.5 -91.23L1137.3 80.25" stroke="#132e65" stroke-width="1.5"></path><path d="M1277.5 -91.23L1456.36 111.56" stroke="#132e65" stroke-width="1.5"></path><path d="M1304.88 38.16L1304.88 38.16" stroke="#132e65" stroke-width="1.5"></path><path d="M1304.88 38.16L1456.36 111.56" stroke="#132e65" stroke-width="1.5"></path><path d="M1304.88 38.16L1137.3 80.25" stroke="#132e65" stroke-width="1.5"></path><path d="M1304.88 38.16L1305.21 243.37" stroke="#132e65" stroke-width="1.5"></path><path d="M1304.88 38.16L1434.98 238.03" stroke="#132e65" stroke-width="1.5"></path><path d="M1305.21 243.37L1305.21 243.37" stroke="#132e65" stroke-width="1.5"></path><path d="M1305.21 243.37L1276.37 359.61" stroke="#132e65" stroke-width="1.5"></path><path d="M1305.21 243.37L1434.98 238.03" stroke="#132e65" stroke-width="1.5"></path><path d="M1305.21 243.37L1110.92 221.04" stroke="#132e65" stroke-width="1.5"></path><path d="M1305.21 243.37L1456.36 111.56" stroke="#132e65" stroke-width="1.5"></path><path d="M1276.37 359.61L1276.37 359.61" stroke="#132e65" stroke-width="1.5"></path><path d="M1276.37 359.61L1455.59 408.75" stroke="#132e65" stroke-width="1.5"></path><path d="M1276.37 359.61L1434.98 238.03" stroke="#132e65" stroke-width="1.5"></path><path d="M1276.37 359.61L1388.95 526.57" stroke="#132e65" stroke-width="1.5"></path><path d="M1272.4 695.01L1272.4 695.01" stroke="#132e65" stroke-width="1.5"></path><path d="M1272.4 695.01L1389.14 696.55" stroke="#132e65" stroke-width="1.5"></path><path d="M1272.4 695.01L1388.95 526.57" stroke="#132e65" stroke-width="1.5"></path><path d="M1272.4 695.01L1090.73 526.26" stroke="#132e65" stroke-width="1.5"></path><path d="M1272.4 695.01L1540.08 687.38" stroke="#132e65" stroke-width="1.5"></path><path d="M1456.36 111.56L1456.36 111.56" stroke="#132e65" stroke-width="1.5"></path><path d="M1456.36 111.56L1434.98 238.03" stroke="#132e65" stroke-width="1.5"></path><path d="M1456.36 111.56L1593.49 58.48" stroke="#132e65" stroke-width="1.5"></path><path d="M1456.36 111.56L1587.16 250.54" stroke="#132e65" stroke-width="1.5"></path><path d="M1434.98 238.03L1434.98 238.03" stroke="#132e65" stroke-width="1.5"></path><path d="M1434.98 238.03L1587.16 250.54" stroke="#132e65" stroke-width="1.5"></path><path d="M1434.98 238.03L1543.56 350.86" stroke="#132e65" stroke-width="1.5"></path><path d="M1434.98 238.03L1455.59 408.75" stroke="#132e65" stroke-width="1.5"></path><path d="M1455.59 408.75L1455.59 408.75" stroke="#132e65" stroke-width="1.5"></path><path d="M1455.59 408.75L1543.56 350.86" stroke="#132e65" stroke-width="1.5"></path><path d="M1388.95 526.57L1388.95 526.57" stroke="#132e65" stroke-width="1.5"></path><path d="M1388.95 526.57L1455.59 408.75" stroke="#132e65" stroke-width="1.5"></path><path d="M1388.95 526.57L1389.14 696.55" stroke="#132e65" stroke-width="1.5"></path><path d="M1388.95 526.57L1585.56 518.79" stroke="#132e65" stroke-width="1.5"></path><path d="M1389.14 696.55L1389.14 696.55" stroke="#132e65" stroke-width="1.5"></path><path d="M1607.88 -111.68L1607.88 -111.68" stroke="#132e65" stroke-width="1.5"></path><path d="M1607.88 -111.68L1593.49 58.48" stroke="#132e65" stroke-width="1.5"></path><path d="M1607.88 -111.68L1456.36 111.56" stroke="#132e65" stroke-width="1.5"></path><path d="M1607.88 -111.68L1277.5 -91.23" stroke="#132e65" stroke-width="1.5"></path><path d="M1607.88 -111.68L1304.88 38.16" stroke="#132e65" stroke-width="1.5"></path><path d="M1607.88 -111.68L1587.16 250.54" stroke="#132e65" stroke-width="1.5"></path><path d="M1593.49 58.48L1593.49 58.48" stroke="#132e65" stroke-width="1.5"></path><path d="M1593.49 58.48L1587.16 250.54" stroke="#132e65" stroke-width="1.5"></path><path d="M1587.16 250.54L1587.16 250.54" stroke="#132e65" stroke-width="1.5"></path><path d="M1587.16 250.54L1543.56 350.86" stroke="#132e65" stroke-width="1.5"></path><path d="M1543.56 350.86L1543.56 350.86" stroke="#132e65" stroke-width="1.5"></path><path d="M1543.56 350.86L1585.56 518.79" stroke="#132e65" stroke-width="1.5"></path><path d="M1585.56 518.79L1585.56 518.79" stroke="#132e65" stroke-width="1.5"></path><path d="M1585.56 518.79L1455.59 408.75" stroke="#132e65" stroke-width="1.5"></path><path d="M1540.08 687.38L1540.08 687.38" stroke="#132e65" stroke-width="1.5"></path><path d="M1540.08 687.38L1389.14 696.55" stroke="#132e65" stroke-width="1.5"></path><circle r="5" cx="-46.07" cy="526.39" fill="#132e65"></circle><circle r="5" cx="-79.44" cy="662.4" fill="#132e65"></circle><circle r="5" cx="61.38" cy="354.89" fill="#132e65"></circle><circle r="5" cx="38.1" cy="526.46" fill="#132e65"></circle><circle r="5" cx="92.56" cy="686.99" fill="#132e65"></circle><circle r="5" cx="239.71" cy="411.81" fill="#132e65"></circle><circle r="5" cx="245.85" cy="502.36" fill="#132e65"></circle><circle r="5" cx="257.8" cy="641.26" fill="#132e65"></circle><circle r="5" cx="337.72" cy="358.36" fill="#132e65"></circle><circle r="5" cx="355.39" cy="558.81" fill="#132e65"></circle><circle r="5" cx="344.46" cy="651.47" fill="#132e65"></circle><circle r="5" cx="523.21" cy="381.67" fill="#132e65"></circle><circle r="5" cx="521.52" cy="510.54" fill="#132e65"></circle><circle r="5" cx="517.76" cy="708.86" fill="#132e65"></circle><circle r="5" cx="675.98" cy="390.23" fill="#132e65"></circle><circle r="5" cx="695.58" cy="560.14" fill="#132e65"></circle><circle r="5" cx="655.56" cy="644.98" fill="#132e65"></circle><circle r="5" cx="860.11" cy="111.03" fill="#132e65"></circle><circle r="5" cx="856.06" cy="255.72" fill="#132e65"></circle><circle r="5" cx="857.36" cy="388.65" fill="#132e65"></circle><circle r="5" cx="813.19" cy="536.06" fill="#132e65"></circle><circle r="5" cx="816.69" cy="644.21" fill="#132e65"></circle><circle r="5" cx="990.59" cy="-92.07" fill="#132e65"></circle><circle r="5" cx="993.99" cy="81.32" fill="#132e65"></circle><circle r="5" cx="1010.34" cy="214.93" fill="#132e65"></circle><circle r="5" cx="992.55" cy="412.38" fill="#132e65"></circle><circle r="5" cx="1137.3" cy="80.25" fill="#132e65"></circle><circle r="5" cx="1110.92" cy="221.04" fill="#132e65"></circle><circle r="5" cx="1155.74" cy="397.56" fill="#132e65"></circle><circle r="5" cx="1090.73" cy="526.26" fill="#132e65"></circle><circle r="5" cx="1151.62" cy="650.75" fill="#132e65"></circle><circle r="5" cx="1277.5" cy="-91.23" fill="#132e65"></circle><circle r="5" cx="1304.88" cy="38.16" fill="#132e65"></circle><circle r="5" cx="1305.21" cy="243.37" fill="#132e65"></circle><circle r="5" cx="1276.37" cy="359.61" fill="#132e65"></circle><circle r="5" cx="1272.4" cy="695.01" fill="#132e65"></circle><circle r="5" cx="1456.36" cy="111.56" fill="#132e65"></circle><circle r="5" cx="1434.98" cy="238.03" fill="#132e65"></circle><circle r="5" cx="1455.59" cy="408.75" fill="#132e65"></circle><circle r="5" cx="1388.95" cy="526.57" fill="#132e65"></circle><circle r="5" cx="1389.14" cy="696.55" fill="#132e65"></circle><circle r="5" cx="1607.88" cy="-111.68" fill="#132e65"></circle><circle r="5" cx="1593.49" cy="58.48" fill="#132e65"></circle><circle r="5" cx="1587.16" cy="250.54" fill="#132e65"></circle><circle r="5" cx="1543.56" cy="350.86" fill="#132e65"></circle><circle r="5" cx="1585.56" cy="518.79" fill="#132e65"></circle><circle r="5" cx="1540.08" cy="687.38" fill="#132e65"></circle><path d="M187.64 521.02L187.64 521.02" stroke="hsl(228.5, 77.2%, 51.5%)" stroke-width="1.5"></path><path d="M187.64 521.02L96.2 545.4" stroke="hsl(228.5, 77.2%, 51.5%)" stroke-width="1.5"></path><path d="M187.64 521.02L254.49 640.79" stroke="hsl(228.5, 77.2%, 51.5%)" stroke-width="1.5"></path><path d="M187.64 521.02L42.13 671.15" stroke="hsl(228.5, 77.2%, 51.5%)" stroke-width="1.5"></path><path d="M254.49 640.79L254.49 640.79" stroke="hsl(228.5, 77.2%, 51.5%)" stroke-width="1.5"></path><path d="M494.27 488.75L494.27 488.75" stroke="hsl(228.5, 77.2%, 51.5%)" stroke-width="1.5"></path><path d="M494.27 488.75L405.08 537.54" stroke="hsl(228.5, 77.2%, 51.5%)" stroke-width="1.5"></path><path d="M494.27 488.75L555.33 664.87" stroke="hsl(228.5, 77.2%, 51.5%)" stroke-width="1.5"></path><path d="M494.27 488.75L686.71 521.09" stroke="hsl(228.5, 77.2%, 51.5%)" stroke-width="1.5"></path><path d="M494.27 488.75L409.32 687.02" stroke="hsl(228.5, 77.2%, 51.5%)" stroke-width="1.5"></path><path d="M686.71 521.09L686.71 521.09" stroke="hsl(228.5, 77.2%, 51.5%)" stroke-width="1.5"></path><path d="M686.71 521.09L794.43 537.4" stroke="hsl(228.5, 77.2%, 51.5%)" stroke-width="1.5"></path><path d="M686.71 521.09L647.3 666.64" stroke="hsl(228.5, 77.2%, 51.5%)" stroke-width="1.5"></path><path d="M686.71 521.09L555.33 664.87" stroke="hsl(228.5, 77.2%, 51.5%)" stroke-width="1.5"></path><path d="M794.43 537.4L794.43 537.4" stroke="hsl(228.5, 77.2%, 51.5%)" stroke-width="1.5"></path><path d="M794.43 537.4L816.28 667.54" stroke="hsl(228.5, 77.2%, 51.5%)" stroke-width="1.5"></path><path d="M794.43 537.4L843.88 366.02" stroke="hsl(228.5, 77.2%, 51.5%)" stroke-width="1.5"></path><path d="M1121.29 249.36L1121.29 249.36" stroke="hsl(228.5, 77.2%, 51.5%)" stroke-width="1.5"></path><path d="M1121.29 249.36L1156.88 371.46" stroke="hsl(228.5, 77.2%, 51.5%)" stroke-width="1.5"></path><path d="M1121.29 249.36L1276.8 244.73" stroke="hsl(228.5, 77.2%, 51.5%)" stroke-width="1.5"></path><path d="M1143.29 540.01L1143.29 540.01" stroke="hsl(228.5, 77.2%, 51.5%)" stroke-width="1.5"></path><path d="M1143.29 540.01L1241.25 535.03" stroke="hsl(228.5, 77.2%, 51.5%)" stroke-width="1.5"></path><path d="M1143.29 540.01L1125.59 650.02" stroke="hsl(228.5, 77.2%, 51.5%)" stroke-width="1.5"></path><path d="M1143.29 540.01L996 527.32" stroke="hsl(228.5, 77.2%, 51.5%)" stroke-width="1.5"></path><path d="M1143.29 540.01L1156.88 371.46" stroke="hsl(228.5, 77.2%, 51.5%)" stroke-width="1.5"></path><path d="M1143.29 540.01L1256.47 703.1" stroke="hsl(228.5, 77.2%, 51.5%)" stroke-width="1.5"></path><path d="M1143.29 540.01L1308.03 397.44" stroke="hsl(228.5, 77.2%, 51.5%)" stroke-width="1.5"></path><path d="M1461.91 206.24L1461.91 206.24" stroke="hsl(228.5, 77.2%, 51.5%)" stroke-width="1.5"></path><path d="M1461.91 206.24L1538.45 242.13" stroke="hsl(228.5, 77.2%, 51.5%)" stroke-width="1.5"></path><path d="M1461.91 206.24L1553.04 101.2" stroke="hsl(228.5, 77.2%, 51.5%)" stroke-width="1.5"></path><path d="M1461.91 206.24L1442.69 364.2" stroke="hsl(228.5, 77.2%, 51.5%)" stroke-width="1.5"></path><path d="M1461.91 206.24L1393.09 49.99" stroke="hsl(228.5, 77.2%, 51.5%)" stroke-width="1.5"></path><path d="M1461.91 206.24L1276.8 244.73" stroke="hsl(228.5, 77.2%, 51.5%)" stroke-width="1.5"></path><path d="M1461.91 206.24L1552.08 389.73" stroke="hsl(228.5, 77.2%, 51.5%)" stroke-width="1.5"></path><path d="M1415.52 521.01L1415.52 521.01" stroke="hsl(228.5, 77.2%, 51.5%)" stroke-width="1.5"></path><path d="M1415.52 521.01L1411.02 638" stroke="hsl(228.5, 77.2%, 51.5%)" stroke-width="1.5"></path><path d="M1415.52 521.01L1543.92 557.18" stroke="hsl(228.5, 77.2%, 51.5%)" stroke-width="1.5"></path><path d="M-100.48 521.57L-100.48 521.57" stroke="hsl(228.5, 77.2%, 51.5%)" stroke-width="1.5"></path><path d="M-100.48 521.57L96.2 545.4" stroke="hsl(228.5, 77.2%, 51.5%)" stroke-width="1.5"></path><path d="M-100.48 521.57L42.13 671.15" stroke="hsl(228.5, 77.2%, 51.5%)" stroke-width="1.5"></path><path d="M96.2 545.4L96.2 545.4" stroke="hsl(228.5, 77.2%, 51.5%)" stroke-width="1.5"></path><path d="M96.2 545.4L42.13 671.15" stroke="hsl(228.5, 77.2%, 51.5%)" stroke-width="1.5"></path><path d="M96.2 545.4L254.49 640.79" stroke="hsl(228.5, 77.2%, 51.5%)" stroke-width="1.5"></path><path d="M96.2 545.4L405.08 537.54" stroke="hsl(228.5, 77.2%, 51.5%)" stroke-width="1.5"></path><path d="M96.2 545.4L409.32 687.02" stroke="hsl(228.5, 77.2%, 51.5%)" stroke-width="1.5"></path><path d="M42.13 671.15L42.13 671.15" stroke="hsl(228.5, 77.2%, 51.5%)" stroke-width="1.5"></path><path d="M405.08 537.54L405.08 537.54" stroke="hsl(228.5, 77.2%, 51.5%)" stroke-width="1.5"></path><path d="M405.08 537.54L409.32 687.02" stroke="hsl(228.5, 77.2%, 51.5%)" stroke-width="1.5"></path><path d="M409.32 687.02L409.32 687.02" stroke="hsl(228.5, 77.2%, 51.5%)" stroke-width="1.5"></path><path d="M409.32 687.02L555.33 664.87" stroke="hsl(228.5, 77.2%, 51.5%)" stroke-width="1.5"></path><path d="M409.32 687.02L254.49 640.79" stroke="hsl(228.5, 77.2%, 51.5%)" stroke-width="1.5"></path><path d="M409.32 687.02L647.3 666.64" stroke="hsl(228.5, 77.2%, 51.5%)" stroke-width="1.5"></path><path d="M409.32 687.02L187.64 521.02" stroke="hsl(228.5, 77.2%, 51.5%)" stroke-width="1.5"></path><path d="M555.33 664.87L555.33 664.87" stroke="hsl(228.5, 77.2%, 51.5%)" stroke-width="1.5"></path><path d="M555.33 664.87L647.3 666.64" stroke="hsl(228.5, 77.2%, 51.5%)" stroke-width="1.5"></path><path d="M555.33 664.87L405.08 537.54" stroke="hsl(228.5, 77.2%, 51.5%)" stroke-width="1.5"></path><path d="M647.3 666.64L647.3 666.64" stroke="hsl(228.5, 77.2%, 51.5%)" stroke-width="1.5"></path><path d="M647.3 666.64L816.28 667.54" stroke="hsl(228.5, 77.2%, 51.5%)" stroke-width="1.5"></path><path d="M647.3 666.64L794.43 537.4" stroke="hsl(228.5, 77.2%, 51.5%)" stroke-width="1.5"></path><path d="M647.3 666.64L494.27 488.75" stroke="hsl(228.5, 77.2%, 51.5%)" stroke-width="1.5"></path><path d="M843.88 366.02L843.88 366.02" stroke="hsl(228.5, 77.2%, 51.5%)" stroke-width="1.5"></path><path d="M843.88 366.02L977.02 354.44" stroke="hsl(228.5, 77.2%, 51.5%)" stroke-width="1.5"></path><path d="M843.88 366.02L686.71 521.09" stroke="hsl(228.5, 77.2%, 51.5%)" stroke-width="1.5"></path><path d="M843.88 366.02L996 527.32" stroke="hsl(228.5, 77.2%, 51.5%)" stroke-width="1.5"></path><path d="M816.28 667.54L816.28 667.54" stroke="hsl(228.5, 77.2%, 51.5%)" stroke-width="1.5"></path><path d="M816.28 667.54L969.01 699.68" stroke="hsl(228.5, 77.2%, 51.5%)" stroke-width="1.5"></path><path d="M816.28 667.54L686.71 521.09" stroke="hsl(228.5, 77.2%, 51.5%)" stroke-width="1.5"></path><path d="M816.28 667.54L996 527.32" stroke="hsl(228.5, 77.2%, 51.5%)" stroke-width="1.5"></path><path d="M977.02 354.44L977.02 354.44" stroke="hsl(228.5, 77.2%, 51.5%)" stroke-width="1.5"></path><path d="M977.02 354.44L996 527.32" stroke="hsl(228.5, 77.2%, 51.5%)" stroke-width="1.5"></path><path d="M977.02 354.44L1121.29 249.36" stroke="hsl(228.5, 77.2%, 51.5%)" stroke-width="1.5"></path><path d="M977.02 354.44L1156.88 371.46" stroke="hsl(228.5, 77.2%, 51.5%)" stroke-width="1.5"></path><path d="M996 527.32L996 527.32" stroke="hsl(228.5, 77.2%, 51.5%)" stroke-width="1.5"></path><path d="M996 527.32L969.01 699.68" stroke="hsl(228.5, 77.2%, 51.5%)" stroke-width="1.5"></path><path d="M996 527.32L1125.59 650.02" stroke="hsl(228.5, 77.2%, 51.5%)" stroke-width="1.5"></path><path d="M996 527.32L794.43 537.4" stroke="hsl(228.5, 77.2%, 51.5%)" stroke-width="1.5"></path><path d="M969.01 699.68L969.01 699.68" stroke="hsl(228.5, 77.2%, 51.5%)" stroke-width="1.5"></path><path d="M969.01 699.68L1125.59 650.02" stroke="hsl(228.5, 77.2%, 51.5%)" stroke-width="1.5"></path><path d="M969.01 699.68L1143.29 540.01" stroke="hsl(228.5, 77.2%, 51.5%)" stroke-width="1.5"></path><path d="M1156.88 371.46L1156.88 371.46" stroke="hsl(228.5, 77.2%, 51.5%)" stroke-width="1.5"></path><path d="M1156.88 371.46L1308.03 397.44" stroke="hsl(228.5, 77.2%, 51.5%)" stroke-width="1.5"></path><path d="M1125.59 650.02L1125.59 650.02" stroke="hsl(228.5, 77.2%, 51.5%)" stroke-width="1.5"></path><path d="M1125.59 650.02L1256.47 703.1" stroke="hsl(228.5, 77.2%, 51.5%)" stroke-width="1.5"></path><path d="M1125.59 650.02L1241.25 535.03" stroke="hsl(228.5, 77.2%, 51.5%)" stroke-width="1.5"></path><path d="M1307.6 -44.96L1307.6 -44.96" stroke="hsl(228.5, 77.2%, 51.5%)" stroke-width="1.5"></path><path d="M1307.6 -44.96L1305.72 40.34" stroke="hsl(228.5, 77.2%, 51.5%)" stroke-width="1.5"></path><path d="M1307.6 -44.96L1393.09 49.99" stroke="hsl(228.5, 77.2%, 51.5%)" stroke-width="1.5"></path><path d="M1307.6 -44.96L1450.3 -103.64" stroke="hsl(228.5, 77.2%, 51.5%)" stroke-width="1.5"></path><path d="M1305.72 40.34L1305.72 40.34" stroke="hsl(228.5, 77.2%, 51.5%)" stroke-width="1.5"></path><path d="M1305.72 40.34L1393.09 49.99" stroke="hsl(228.5, 77.2%, 51.5%)" stroke-width="1.5"></path><path d="M1305.72 40.34L1450.3 -103.64" stroke="hsl(228.5, 77.2%, 51.5%)" stroke-width="1.5"></path><path d="M1305.72 40.34L1276.8 244.73" stroke="hsl(228.5, 77.2%, 51.5%)" stroke-width="1.5"></path><path d="M1276.8 244.73L1276.8 244.73" stroke="hsl(228.5, 77.2%, 51.5%)" stroke-width="1.5"></path><path d="M1276.8 244.73L1308.03 397.44" stroke="hsl(228.5, 77.2%, 51.5%)" stroke-width="1.5"></path><path d="M1276.8 244.73L1156.88 371.46" stroke="hsl(228.5, 77.2%, 51.5%)" stroke-width="1.5"></path><path d="M1276.8 244.73L1442.69 364.2" stroke="hsl(228.5, 77.2%, 51.5%)" stroke-width="1.5"></path><path d="M1308.03 397.44L1308.03 397.44" stroke="hsl(228.5, 77.2%, 51.5%)" stroke-width="1.5"></path><path d="M1308.03 397.44L1442.69 364.2" stroke="hsl(228.5, 77.2%, 51.5%)" stroke-width="1.5"></path><path d="M1308.03 397.44L1241.25 535.03" stroke="hsl(228.5, 77.2%, 51.5%)" stroke-width="1.5"></path><path d="M1308.03 397.44L1415.52 521.01" stroke="hsl(228.5, 77.2%, 51.5%)" stroke-width="1.5"></path><path d="M1241.25 535.03L1241.25 535.03" stroke="hsl(228.5, 77.2%, 51.5%)" stroke-width="1.5"></path><path d="M1241.25 535.03L1256.47 703.1" stroke="hsl(228.5, 77.2%, 51.5%)" stroke-width="1.5"></path><path d="M1241.25 535.03L1415.52 521.01" stroke="hsl(228.5, 77.2%, 51.5%)" stroke-width="1.5"></path><path d="M1256.47 703.1L1256.47 703.1" stroke="hsl(228.5, 77.2%, 51.5%)" stroke-width="1.5"></path><path d="M1256.47 703.1L1411.02 638" stroke="hsl(228.5, 77.2%, 51.5%)" stroke-width="1.5"></path><path d="M1450.3 -103.64L1450.3 -103.64" stroke="hsl(228.5, 77.2%, 51.5%)" stroke-width="1.5"></path><path d="M1450.3 -103.64L1541.65 -63.96" stroke="hsl(228.5, 77.2%, 51.5%)" stroke-width="1.5"></path><path d="M1393.09 49.99L1393.09 49.99" stroke="hsl(228.5, 77.2%, 51.5%)" stroke-width="1.5"></path><path d="M1393.09 49.99L1450.3 -103.64" stroke="hsl(228.5, 77.2%, 51.5%)" stroke-width="1.5"></path><path d="M1393.09 49.99L1553.04 101.2" stroke="hsl(228.5, 77.2%, 51.5%)" stroke-width="1.5"></path><path d="M1393.09 49.99L1541.65 -63.96" stroke="hsl(228.5, 77.2%, 51.5%)" stroke-width="1.5"></path><path d="M1442.69 364.2L1442.69 364.2" stroke="hsl(228.5, 77.2%, 51.5%)" stroke-width="1.5"></path><path d="M1442.69 364.2L1552.08 389.73" stroke="hsl(228.5, 77.2%, 51.5%)" stroke-width="1.5"></path><path d="M1442.69 364.2L1538.45 242.13" stroke="hsl(228.5, 77.2%, 51.5%)" stroke-width="1.5"></path><path d="M1442.69 364.2L1415.52 521.01" stroke="hsl(228.5, 77.2%, 51.5%)" stroke-width="1.5"></path><path d="M1411.02 638L1411.02 638" stroke="hsl(228.5, 77.2%, 51.5%)" stroke-width="1.5"></path><path d="M1411.02 638L1550.55 689.23" stroke="hsl(228.5, 77.2%, 51.5%)" stroke-width="1.5"></path><path d="M1411.02 638L1543.92 557.18" stroke="hsl(228.5, 77.2%, 51.5%)" stroke-width="1.5"></path><path d="M1411.02 638L1241.25 535.03" stroke="hsl(228.5, 77.2%, 51.5%)" stroke-width="1.5"></path><path d="M1411.02 638L1308.03 397.44" stroke="hsl(228.5, 77.2%, 51.5%)" stroke-width="1.5"></path><path d="M1541.65 -63.96L1541.65 -63.96" stroke="hsl(228.5, 77.2%, 51.5%)" stroke-width="1.5"></path><path d="M1553.04 101.2L1553.04 101.2" stroke="hsl(228.5, 77.2%, 51.5%)" stroke-width="1.5"></path><path d="M1553.04 101.2L1538.45 242.13" stroke="hsl(228.5, 77.2%, 51.5%)" stroke-width="1.5"></path><path d="M1538.45 242.13L1538.45 242.13" stroke="hsl(228.5, 77.2%, 51.5%)" stroke-width="1.5"></path><path d="M1538.45 242.13L1552.08 389.73" stroke="hsl(228.5, 77.2%, 51.5%)" stroke-width="1.5"></path><path d="M1538.45 242.13L1393.09 49.99" stroke="hsl(228.5, 77.2%, 51.5%)" stroke-width="1.5"></path><path d="M1552.08 389.73L1552.08 389.73" stroke="hsl(228.5, 77.2%, 51.5%)" stroke-width="1.5"></path><path d="M1552.08 389.73L1543.92 557.18" stroke="hsl(228.5, 77.2%, 51.5%)" stroke-width="1.5"></path><path d="M1552.08 389.73L1415.52 521.01" stroke="hsl(228.5, 77.2%, 51.5%)" stroke-width="1.5"></path><path d="M1543.92 557.18L1543.92 557.18" stroke="hsl(228.5, 77.2%, 51.5%)" stroke-width="1.5"></path><path d="M1543.92 557.18L1550.55 689.23" stroke="hsl(228.5, 77.2%, 51.5%)" stroke-width="1.5"></path><path d="M1543.92 557.18L1442.69 364.2" stroke="hsl(228.5, 77.2%, 51.5%)" stroke-width="1.5"></path><path d="M1550.55 689.23L1550.55 689.23" stroke="hsl(228.5, 77.2%, 51.5%)" stroke-width="1.5"></path><path d="M1550.55 689.23L1415.52 521.01" stroke="hsl(228.5, 77.2%, 51.5%)" stroke-width="1.5"></path><path d="M1550.55 689.23L1256.47 703.1" stroke="hsl(228.5, 77.2%, 51.5%)" stroke-width="1.5"></path><path d="M1550.55 689.23L1552.08 389.73" stroke="hsl(228.5, 77.2%, 51.5%)" stroke-width="1.5"></path><path d="M1550.55 689.23L1442.69 364.2" stroke="hsl(228.5, 77.2%, 51.5%)" stroke-width="1.5"></path><circle r="25" cx="187.64" cy="521.02" fill="url(#SvgjsRadialGradient1013)"></circle><circle r="25" cx="254.49" cy="640.79" fill="url(#SvgjsRadialGradient1013)"></circle><circle r="25" cx="494.27" cy="488.75" fill="url(#SvgjsRadialGradient1013)"></circle><circle r="25" cx="686.71" cy="521.09" fill="url(#SvgjsRadialGradient1013)"></circle><circle r="25" cx="794.43" cy="537.4" fill="url(#SvgjsRadialGradient1013)"></circle><circle r="25" cx="1121.29" cy="249.36" fill="url(#SvgjsRadialGradient1013)"></circle><circle r="25" cx="1143.29" cy="540.01" fill="url(#SvgjsRadialGradient1013)"></circle><circle r="25" cx="1461.91" cy="206.24" fill="url(#SvgjsRadialGradient1013)"></circle><circle r="25" cx="1415.52" cy="521.01" fill="url(#SvgjsRadialGradient1013)"></circle><circle r="5" cx="-100.48" cy="521.57" fill="#8b9ad9"></circle><circle r="5" cx="96.2" cy="545.4" fill="#8b9ad9"></circle><circle r="5" cx="42.13" cy="671.15" fill="#8b9ad9"></circle><circle r="5" cx="405.08" cy="537.54" fill="#8b9ad9"></circle><circle r="5" cx="409.32" cy="687.02" fill="#8b9ad9"></circle><circle r="5" cx="555.33" cy="664.87" fill="#8b9ad9"></circle><circle r="5" cx="647.3" cy="666.64" fill="#8b9ad9"></circle><circle r="5" cx="843.88" cy="366.02" fill="#8b9ad9"></circle><circle r="5" cx="816.28" cy="667.54" fill="#8b9ad9"></circle><circle r="5" cx="977.02" cy="354.44" fill="#8b9ad9"></circle><circle r="5" cx="996" cy="527.32" fill="#8b9ad9"></circle><circle r="5" cx="969.01" cy="699.68" fill="#8b9ad9"></circle><circle r="5" cx="1156.88" cy="371.46" fill="#8b9ad9"></circle><circle r="5" cx="1125.59" cy="650.02" fill="#8b9ad9"></circle><circle r="5" cx="1307.6" cy="-44.96" fill="#8b9ad9"></circle><circle r="5" cx="1305.72" cy="40.34" fill="#8b9ad9"></circle><circle r="5" cx="1276.8" cy="244.73" fill="#8b9ad9"></circle><circle r="5" cx="1308.03" cy="397.44" fill="#8b9ad9"></circle><circle r="5" cx="1241.25" cy="535.03" fill="#8b9ad9"></circle><circle r="5" cx="1256.47" cy="703.1" fill="#8b9ad9"></circle><circle r="5" cx="1450.3" cy="-103.64" fill="#8b9ad9"></circle><circle r="5" cx="1393.09" cy="49.99" fill="#8b9ad9"></circle><circle r="5" cx="1442.69" cy="364.2" fill="#8b9ad9"></circle><circle r="5" cx="1411.02" cy="638" fill="#8b9ad9"></circle><circle r="5" cx="1541.65" cy="-63.96" fill="#8b9ad9"></circle><circle r="5" cx="1553.04" cy="101.2" fill="#8b9ad9"></circle><circle r="5" cx="1538.45" cy="242.13" fill="#8b9ad9"></circle><circle r="5" cx="1552.08" cy="389.73" fill="#8b9ad9"></circle><circle r="5" cx="1543.92" cy="557.18" fill="#8b9ad9"></circle><circle r="5" cx="1550.55" cy="689.23" fill="#8b9ad9"></circle></g><defs><mask id="SvgjsMask1012"><rect width="1440" height="560" fill="#ffffff"></rect></mask><radialGradient id="SvgjsRadialGradient1013"><stop stop-color="#ffffff" offset="0.1"></stop><stop stop-color="#1735b3" offset="0.2"></stop><stop stop-color="rgba(23, 53, 179, 0)" offset="1"></stop></radialGradient></defs></svg>