<svg width="987" height="325" viewBox="0 0 987 325" fill="none" xmlns="http://www.w3.org/2000/svg">
<g clip-path="url(#clip0_20_2)">
<g filter="url(#filter0_d_20_2)">
<path d="M133.713 156.451H26.333C12.8547 156.451 1.92836 167.377 1.92836 180.856V288.236C1.92836 301.714 12.8547 312.641 26.333 312.641H133.713C147.192 312.641 158.118 301.714 158.118 288.236V180.856C158.118 167.377 147.192 156.451 133.713 156.451Z" fill="#660708"/>
</g>
<mask id="mask0_20_2" style="mask-type:alpha" maskUnits="userSpaceOnUse" x="-4" y="126" width="210" height="209">
<path d="M169.473 162.179L205.486 334.757L-3.10451 126.167L169.473 162.179Z" fill="#AC2525"/>
</mask>
<g mask="url(#mask0_20_2)">
<rect x="1.18166" y="156.451" width="156.19" height="156.19" rx="24.4046" fill="#A4161A"/>
</g>
<g filter="url(#filter1_d_20_2)">
<rect x="78.6996" y="79.6798" width="156.19" height="156.19" rx="24.4046" fill="#B1A7A6"/>
</g>
<mask id="mask1_20_2" style="mask-type:alpha" maskUnits="userSpaceOnUse" x="74" y="49" width="210" height="210">
<path d="M247.473 85.4296L283.486 258.008L74.8955 49.4174L247.473 85.4296Z" fill="#AC2525"/>
</mask>
<g mask="url(#mask1_20_2)">
<rect x="79.1816" y="79.7018" width="156.19" height="156.19" rx="24.4046" fill="#D3D3D3"/>
</g>
<g filter="url(#filter2_d_20_2)">
<rect x="155.678" y="2.70178" width="156.19" height="156.19" rx="24.4046" fill="#F5F3F4"/>
</g>
<mask id="mask2_20_2" style="mask-type:alpha" maskUnits="userSpaceOnUse" x="151" y="-28" width="209" height="210">
<path d="M323.969 8.4296L359.982 181.008L151.391 -27.5826L323.969 8.4296Z" fill="#AC2525"/>
</mask>
<g mask="url(#mask2_20_2)">
<rect x="155.678" y="2.70178" width="156.19" height="156.19" rx="24.4046" fill="white"/>
</g>
<path d="M474.498 67.3954C474.498 71.9204 473.939 75.9625 472.82 79.5215C471.702 83.0805 470.176 86.2327 468.244 88.9783C466.363 91.6729 464.177 93.9863 461.685 95.9183C459.194 97.8504 456.576 99.4265 453.83 100.647C451.136 101.867 448.39 102.757 445.594 103.316C442.848 103.875 440.255 104.155 437.815 104.155H392.971V84.3261H437.815C440.357 84.1228 442.645 83.6143 444.678 82.8008C446.763 81.9365 448.543 80.7925 450.017 79.3689C451.491 77.9453 452.635 76.2421 453.449 74.2592C454.262 72.2255 454.669 69.9376 454.669 67.3954V58.3962C454.415 55.9049 453.881 53.617 453.068 51.5324C452.254 49.4478 451.136 47.6683 449.712 46.1939C448.339 44.7194 446.661 43.5755 444.678 42.762C442.696 41.8977 440.408 41.4655 437.815 41.4655H393.124C390.48 41.4655 388.472 42.1519 387.099 43.5246C385.726 44.8974 385.04 46.8803 385.04 49.4733V131H365.211V49.4733C365.211 44.389 366.126 40.0673 367.956 36.5083C369.838 32.9493 372.151 30.0767 374.896 27.8904C377.693 25.7042 380.718 24.128 383.972 23.162C387.226 22.1452 390.226 21.6367 392.971 21.6367H437.815C442.289 21.6367 446.305 22.2214 449.864 23.3908C453.423 24.5094 456.55 26.0346 459.245 27.9667C461.991 29.8479 464.304 32.0341 466.185 34.5254C468.117 37.0167 469.693 39.6351 470.913 42.3807C472.185 45.0753 473.1 47.8209 473.659 50.6172C474.218 53.3628 474.498 55.9557 474.498 58.3962V67.3954ZM571.811 103.697C571.811 106.443 571.328 109.417 570.362 112.62C569.396 115.773 567.82 118.721 565.634 121.467C563.499 124.162 560.677 126.424 557.169 128.254C553.711 130.085 549.491 131 544.509 131H508.741C505.995 131 503.021 130.517 499.818 129.551C496.665 128.585 493.717 127.034 490.971 124.899C488.276 122.713 486.014 119.891 484.183 116.433C482.353 112.925 481.438 108.68 481.438 103.697C481.438 100.952 481.921 97.9775 482.887 94.7744C483.853 91.5713 485.404 88.6224 487.539 85.9277C489.725 83.1822 492.547 80.8942 496.004 79.0639C499.513 77.2335 503.758 76.3184 508.741 76.3184H544.509V95.232H508.741C506.046 95.232 503.961 96.0709 502.487 97.7487C501.013 99.3757 500.275 101.409 500.275 103.85C500.275 106.443 501.114 108.477 502.792 109.951C504.521 111.375 506.554 112.086 508.893 112.086H544.509C547.203 112.086 549.288 111.273 550.762 109.646C552.237 108.019 552.974 105.985 552.974 103.545V75.8608C552.974 73.2678 552.161 71.2086 550.534 69.6834C548.957 68.1581 546.949 67.3954 544.509 67.3954H500.962V48.5581H544.509C547.254 48.5581 550.203 49.0411 553.355 50.0071C556.558 50.9731 559.507 52.5493 562.202 54.7355C564.948 56.8709 567.235 59.6927 569.066 63.2009C570.896 66.6582 571.811 70.8782 571.811 75.8608V103.697ZM680.107 131H660.278V85.2413C660.278 82.6483 659.821 80.335 658.905 78.3012C658.041 76.2167 656.846 74.4372 655.321 72.9627C653.796 71.4883 651.991 70.3697 649.906 69.6071C647.872 68.7936 645.661 68.3869 643.271 68.3869H608.571V131H588.742V58.3962C588.742 57.0234 588.996 55.7524 589.505 54.583C590.013 53.3628 590.725 52.3205 591.64 51.4561C592.555 50.541 593.623 49.8292 594.843 49.3207C596.063 48.8123 597.36 48.5581 598.733 48.5581H643.424C645.915 48.5581 648.533 48.8377 651.279 49.397C654.075 49.9563 656.821 50.8714 659.516 52.1425C662.261 53.3628 664.854 54.9389 667.295 56.8709C669.786 58.7521 671.972 61.0655 673.853 63.811C675.785 66.5057 677.311 69.6325 678.429 73.1915C679.548 76.7505 680.107 80.7671 680.107 85.2413V131ZM770.023 68.3869H735.399V131H715.341V68.3869H689.564V48.5581H715.341V21.6367H735.399V48.5581H770.023V68.3869ZM863.447 103.697C863.447 106.443 862.964 109.417 861.998 112.62C861.032 115.773 859.456 118.721 857.269 121.467C855.134 124.162 852.312 126.424 848.804 128.254C845.347 130.085 841.127 131 836.144 131H800.376C797.63 131 794.656 130.517 791.453 129.551C788.301 128.585 785.352 127.034 782.606 124.899C779.912 122.713 777.649 119.891 775.819 116.433C773.989 112.925 773.073 108.68 773.073 103.697C773.073 100.952 773.556 97.9775 774.522 94.7744C775.488 91.5713 777.039 88.6224 779.174 85.9277C781.361 83.1822 784.183 80.8942 787.64 79.0639C791.148 77.2335 795.393 76.3184 800.376 76.3184H836.144V95.232H800.376C797.681 95.232 795.597 96.0709 794.122 97.7487C792.648 99.3757 791.911 101.409 791.911 103.85C791.911 106.443 792.75 108.477 794.427 109.951C796.156 111.375 798.19 112.086 800.529 112.086H836.144C838.839 112.086 840.923 111.273 842.398 109.646C843.872 108.019 844.609 105.985 844.609 103.545V75.8608C844.609 73.2678 843.796 71.2086 842.169 69.6834C840.593 68.1581 838.585 67.3954 836.144 67.3954H792.597V48.5581H836.144C838.89 48.5581 841.838 49.0411 844.991 50.0071C848.194 50.9731 851.143 52.5493 853.837 54.7355C856.583 56.8709 858.871 59.6927 860.701 63.2009C862.532 66.6582 863.447 70.8782 863.447 75.8608V103.697ZM977.233 131H948.634L908.672 92.4102C906.435 90.3765 905.392 87.8343 905.545 84.7837C905.646 83.3601 906.002 82.0382 906.612 80.818C907.273 79.5469 908.163 78.4792 909.282 77.6149L945.507 48.4056H977.233L930.56 86.004L977.233 131ZM900.511 131H880.683V13.7052H900.511V131ZM474.65 250.977C474.65 253.417 474.218 256.036 473.354 258.832C472.54 261.628 471.168 264.221 469.236 266.611C467.354 269.001 464.889 271.009 461.838 272.636C458.787 274.212 455.05 275 450.627 275H375.354C373.93 275 372.609 274.746 371.388 274.237C370.168 273.729 369.1 273.043 368.185 272.178C367.321 271.263 366.634 270.195 366.126 268.975C365.618 267.755 365.363 266.433 365.363 265.009V175.627C365.363 174.255 365.618 172.958 366.126 171.738C366.634 170.518 367.321 169.45 368.185 168.535C369.1 167.62 370.168 166.908 371.388 166.399C372.609 165.891 373.93 165.637 375.354 165.637H441.704C444.145 165.637 446.763 166.069 449.559 166.933C452.356 167.798 454.949 169.196 457.338 171.128C459.779 173.009 461.787 175.475 463.363 178.525C464.99 181.576 465.804 185.313 465.804 189.736V193.473C465.804 196.981 465.219 200.769 464.05 204.837C462.88 208.853 460.999 212.666 458.406 216.276C460.643 217.649 462.728 219.302 464.66 221.234C466.643 223.166 468.371 225.403 469.846 227.945C471.32 230.487 472.49 233.36 473.354 236.563C474.218 239.766 474.65 243.299 474.65 247.163V250.977ZM454.822 247.163C454.822 244.57 454.415 242.257 453.601 240.223C452.788 238.139 451.644 236.359 450.17 234.885C448.695 233.41 446.916 232.292 444.831 231.529C442.746 230.716 440.408 230.309 437.815 230.309H393.124V210.328H428.892C431.485 210.328 433.823 209.946 435.908 209.184C437.993 208.37 439.772 207.226 441.247 205.752C442.721 204.277 443.84 202.523 444.602 200.49C445.416 198.405 445.822 196.066 445.822 193.473V189.736C445.822 186.889 444.45 185.465 441.704 185.465H385.192V255.171H450.627C450.983 255.171 451.415 255.146 451.924 255.095C452.432 255.044 452.89 254.892 453.296 254.637C453.703 254.383 454.059 253.951 454.364 253.341C454.669 252.731 454.822 251.892 454.822 250.824V247.163ZM525.976 275H517.13C514.283 275 511.232 274.517 507.978 273.551C504.775 272.585 501.775 271.009 498.979 268.823C496.182 266.585 493.869 263.713 492.039 260.205C490.208 256.646 489.293 252.299 489.293 247.163V157.705H509.122V247.163C509.122 249.604 509.885 251.561 511.41 253.036C512.935 254.459 514.842 255.171 517.13 255.171H525.976V275ZM628.4 247.163C628.4 250.57 627.967 253.646 627.103 256.391C626.239 259.086 625.095 261.476 623.671 263.56C622.248 265.594 620.595 267.348 618.714 268.823C616.833 270.246 614.85 271.416 612.765 272.331C610.732 273.246 608.647 273.932 606.512 274.39C604.427 274.797 602.444 275 600.563 275H564.795C562.05 275 559.05 274.517 555.796 273.551C552.542 272.585 549.517 271.009 546.72 268.823C543.975 266.585 541.661 263.713 539.78 260.205C537.95 256.646 537.035 252.299 537.035 247.163V220.318C537.035 215.234 537.95 210.938 539.78 207.43C541.661 203.871 543.975 200.998 546.72 198.812C549.517 196.575 552.542 194.973 555.796 194.007C559.05 193.041 562.05 192.558 564.795 192.558H600.563C605.647 192.558 609.969 193.473 613.528 195.304C617.087 197.134 619.96 199.447 622.146 202.244C624.332 204.989 625.908 207.989 626.874 211.243C627.891 214.497 628.4 217.522 628.4 220.318V247.163ZM608.571 220.471C608.571 217.725 607.884 215.692 606.512 214.37C605.139 213.048 603.156 212.387 600.563 212.387H564.948C562.304 212.387 560.295 213.073 558.923 214.446C557.55 215.768 556.864 217.725 556.864 220.318V247.163C556.864 249.756 557.55 251.739 558.923 253.112C560.295 254.485 562.304 255.171 564.948 255.171H600.563C603.258 255.171 605.266 254.485 606.588 253.112C607.91 251.739 608.571 249.756 608.571 247.163V220.471ZM735.017 282.932C735.017 286.338 734.585 289.389 733.721 292.083C732.857 294.829 731.713 297.218 730.289 299.252C728.865 301.337 727.213 303.091 725.332 304.514C723.451 305.989 721.468 307.184 719.383 308.099C717.349 309.014 715.265 309.675 713.129 310.082C711.045 310.539 709.062 310.768 707.181 310.768H671.413V290.939H707.181C709.876 290.939 711.884 290.253 713.206 288.88C714.528 287.507 715.189 285.524 715.189 282.932V220.318C715.189 217.725 714.528 215.768 713.206 214.446C711.884 213.073 709.876 212.387 707.181 212.387H671.413C668.972 212.387 667.04 213.15 665.617 214.675C664.193 216.149 663.481 218.03 663.481 220.318V247.163C663.481 249.756 664.168 251.739 665.54 253.112C666.913 254.485 668.921 255.171 671.565 255.171H707.181V275H671.413C669.532 275 667.549 274.797 665.464 274.39C663.38 273.932 661.295 273.246 659.21 272.331C657.177 271.416 655.219 270.246 653.338 268.823C651.457 267.348 649.805 265.594 648.381 263.56C646.957 261.476 645.813 259.086 644.949 256.391C644.085 253.646 643.653 250.57 643.653 247.163V220.318C643.653 218.437 643.856 216.454 644.263 214.37C644.72 212.285 645.407 210.226 646.322 208.192C647.237 206.108 648.406 204.125 649.83 202.244C651.304 200.362 653.058 198.71 655.092 197.286C657.177 195.863 659.566 194.719 662.261 193.855C664.956 192.99 668.006 192.558 671.413 192.558H707.181C709.062 192.558 711.045 192.787 713.129 193.244C715.265 193.651 717.349 194.312 719.383 195.227C721.468 196.143 723.451 197.337 725.332 198.812C727.213 200.235 728.865 201.989 730.289 204.074C731.713 206.108 732.857 208.472 733.721 211.167C734.585 213.861 735.017 216.912 735.017 220.318V282.932Z" fill="#FAFAFA"/>
</g>
<defs>
<filter id="filter0_d_20_2" x="-7.83349" y="156.451" width="175.713" height="175.713" filterUnits="userSpaceOnUse" color-interpolation-filters="sRGB">
<feFlood flood-opacity="0" result="BackgroundImageFix"/>
<feColorMatrix in="SourceAlpha" type="matrix" values="0 0 0 0 0 0 0 0 0 0 0 0 0 0 0 0 0 0 127 0" result="hardAlpha"/>
<feOffset dy="9.76185"/>
<feGaussianBlur stdDeviation="4.88093"/>
<feColorMatrix type="matrix" values="0 0 0 0 0 0 0 0 0 0 0 0 0 0 0 0 0 0 0.25 0"/>
<feBlend mode="normal" in2="BackgroundImageFix" result="effect1_dropShadow_20_2"/>
<feBlend mode="normal" in="SourceGraphic" in2="effect1_dropShadow_20_2" result="shape"/>
</filter>
<filter id="filter1_d_20_2" x="68.9377" y="79.6798" width="175.713" height="175.713" filterUnits="userSpaceOnUse" color-interpolation-filters="sRGB">
<feFlood flood-opacity="0" result="BackgroundImageFix"/>
<feColorMatrix in="SourceAlpha" type="matrix" values="0 0 0 0 0 0 0 0 0 0 0 0 0 0 0 0 0 0 127 0" result="hardAlpha"/>
<feOffset dy="9.76185"/>
<feGaussianBlur stdDeviation="4.88093"/>
<feColorMatrix type="matrix" values="0 0 0 0 0 0 0 0 0 0 0 0 0 0 0 0 0 0 0.25 0"/>
<feBlend mode="normal" in2="BackgroundImageFix" result="effect1_dropShadow_20_2"/>
<feBlend mode="normal" in="SourceGraphic" in2="effect1_dropShadow_20_2" result="shape"/>
</filter>
<filter id="filter2_d_20_2" x="145.916" y="2.70178" width="175.713" height="175.713" filterUnits="userSpaceOnUse" color-interpolation-filters="sRGB">
<feFlood flood-opacity="0" result="BackgroundImageFix"/>
<feColorMatrix in="SourceAlpha" type="matrix" values="0 0 0 0 0 0 0 0 0 0 0 0 0 0 0 0 0 0 127 0" result="hardAlpha"/>
<feOffset dy="9.76185"/>
<feGaussianBlur stdDeviation="4.88093"/>
<feColorMatrix type="matrix" values="0 0 0 0 0 0 0 0 0 0 0 0 0 0 0 0 0 0 0.25 0"/>
<feBlend mode="normal" in2="BackgroundImageFix" result="effect1_dropShadow_20_2"/>
<feBlend mode="normal" in="SourceGraphic" in2="effect1_dropShadow_20_2" result="shape"/>
</filter>
<clipPath id="clip0_20_2">
<rect width="987" height="325" fill="white"/>
</clipPath>
</defs>
</svg>
