<svg width="1324" height="325" viewBox="0 0 1324 325" fill="none" xmlns="http://www.w3.org/2000/svg">
<g clip-path="url(#clip0_107_27)">
<g filter="url(#filter0_d_107_27)">
<path d="M133.713 156.451H26.333C12.8547 156.451 1.92834 167.377 1.92834 180.856V288.236C1.92834 301.714 12.8547 312.641 26.333 312.641H133.713C147.192 312.641 158.118 301.714 158.118 288.236V180.856C158.118 167.377 147.192 156.451 133.713 156.451Z" fill="#35A7FF"/>
</g>
<mask id="mask0_107_27" style="mask-type:alpha" maskUnits="userSpaceOnUse" x="-4" y="126" width="210" height="209">
<path d="M169.473 162.179L205.486 334.757L-3.10456 126.167L169.473 162.179Z" fill="#AC2525"/>
</mask>
<g mask="url(#mask0_107_27)">
<rect x="1.18164" y="156.451" width="156.19" height="156.19" rx="24.4046" fill="#4FC1FF"/>
</g>
<g filter="url(#filter1_d_107_27)">
<rect x="78.6996" y="79.6798" width="156.19" height="156.19" rx="24.4046" fill="#F7F9F9"/>
</g>
<mask id="mask1_107_27" style="mask-type:alpha" maskUnits="userSpaceOnUse" x="73" y="49" width="210" height="210">
<path d="M246.473 85.4296L282.486 258.008L73.8954 49.4174L246.473 85.4296Z" fill="#AC2525"/>
</mask>
<g mask="url(#mask1_107_27)">
<rect x="78.1816" y="79.7018" width="156.19" height="156.19" rx="24.4046" fill="white"/>
</g>
<g filter="url(#filter2_d_107_27)">
<rect x="155.677" y="2.70178" width="156.19" height="156.19" rx="24.4046" fill="#FF5154"/>
</g>
<mask id="mask2_107_27" style="mask-type:alpha" maskUnits="userSpaceOnUse" x="151" y="-28" width="209" height="210">
<path d="M323.969 8.4296L359.981 181.008L151.391 -27.5826L323.969 8.4296Z" fill="#AC2525"/>
</mask>
<g mask="url(#mask2_107_27)">
<rect x="155.677" y="2.70178" width="156.19" height="156.19" rx="24.4046" fill="#FF6B6E"/>
</g>
<path d="M487.498 153.395C487.498 157.92 486.939 161.962 485.82 165.521C484.702 169.08 483.176 172.233 481.244 174.978C479.363 177.673 477.177 179.986 474.685 181.918C472.194 183.85 469.576 185.427 466.83 186.647C464.136 187.867 461.39 188.757 458.594 189.316C455.848 189.875 453.255 190.155 450.815 190.155H405.971V170.326H450.815C453.357 170.123 455.645 169.614 457.678 168.801C459.763 167.937 461.543 166.793 463.017 165.369C464.491 163.945 465.635 162.242 466.449 160.259C467.262 158.226 467.669 155.938 467.669 153.395V144.396C467.415 141.905 466.881 139.617 466.068 137.532C465.254 135.448 464.136 133.668 462.712 132.194C461.339 130.719 459.661 129.575 457.678 128.762C455.696 127.898 453.408 127.465 450.815 127.465H406.124C403.48 127.465 401.472 128.152 400.099 129.525C398.726 130.897 398.04 132.88 398.04 135.473V217H378.211V135.473C378.211 130.389 379.126 126.067 380.956 122.508C382.838 118.949 385.151 116.077 387.896 113.89C390.693 111.704 393.718 110.128 396.972 109.162C400.226 108.145 403.226 107.637 405.971 107.637H450.815C455.289 107.637 459.305 108.221 462.864 109.391C466.423 110.509 469.55 112.035 472.245 113.967C474.991 115.848 477.304 118.034 479.185 120.525C481.117 123.017 482.693 125.635 483.913 128.381C485.185 131.075 486.1 133.821 486.659 136.617C487.218 139.363 487.498 141.956 487.498 144.396V153.395ZM584.811 189.697C584.811 192.443 584.328 195.417 583.362 198.62C582.396 201.773 580.82 204.721 578.634 207.467C576.499 210.162 573.677 212.424 570.169 214.254C566.711 216.085 562.491 217 557.509 217H521.741C518.995 217 516.021 216.517 512.818 215.551C509.665 214.585 506.717 213.034 503.971 210.899C501.276 208.713 499.014 205.891 497.183 202.433C495.353 198.925 494.438 194.68 494.438 189.697C494.438 186.952 494.921 183.977 495.887 180.774C496.853 177.571 498.404 174.622 500.539 171.928C502.725 169.182 505.547 166.894 509.004 165.064C512.513 163.234 516.758 162.318 521.741 162.318H557.509V181.232H521.741C519.046 181.232 516.961 182.071 515.487 183.749C514.013 185.376 513.275 187.409 513.275 189.85C513.275 192.443 514.114 194.477 515.792 195.951C517.521 197.375 519.554 198.086 521.893 198.086H557.509C560.203 198.086 562.288 197.273 563.762 195.646C565.237 194.019 565.974 191.985 565.974 189.545V161.861C565.974 159.268 565.161 157.209 563.534 155.683C561.957 154.158 559.949 153.395 557.509 153.395H513.962V134.558H557.509C560.254 134.558 563.203 135.041 566.355 136.007C569.558 136.973 572.507 138.549 575.202 140.736C577.948 142.871 580.235 145.693 582.066 149.201C583.896 152.658 584.811 156.878 584.811 161.861V189.697ZM693.107 217H673.278V171.241C673.278 168.648 672.821 166.335 671.905 164.301C671.041 162.217 669.846 160.437 668.321 158.963C666.796 157.488 664.991 156.37 662.906 155.607C660.872 154.794 658.661 154.387 656.271 154.387H621.571V217H601.742V144.396C601.742 143.023 601.996 141.752 602.505 140.583C603.013 139.363 603.725 138.32 604.64 137.456C605.555 136.541 606.623 135.829 607.843 135.321C609.063 134.812 610.36 134.558 611.733 134.558H656.424C658.915 134.558 661.533 134.838 664.279 135.397C667.075 135.956 669.821 136.871 672.516 138.143C675.261 139.363 677.854 140.939 680.295 142.871C682.786 144.752 684.972 147.065 686.853 149.811C688.785 152.506 690.311 155.633 691.429 159.192C692.548 162.751 693.107 166.767 693.107 171.241V217ZM783.023 154.387H748.399V217H728.341V154.387H702.564V134.558H728.341V107.637H748.399V134.558H783.023V154.387ZM876.447 189.697C876.447 192.443 875.964 195.417 874.998 198.62C874.032 201.773 872.456 204.721 870.269 207.467C868.134 210.162 865.312 212.424 861.804 214.254C858.347 216.085 854.127 217 849.144 217H813.376C810.63 217 807.656 216.517 804.453 215.551C801.301 214.585 798.352 213.034 795.606 210.899C792.912 208.713 790.649 205.891 788.819 202.433C786.989 198.925 786.073 194.68 786.073 189.697C786.073 186.952 786.556 183.977 787.522 180.774C788.488 177.571 790.039 174.622 792.174 171.928C794.361 169.182 797.183 166.894 800.64 165.064C804.148 163.234 808.393 162.318 813.376 162.318H849.144V181.232H813.376C810.681 181.232 808.597 182.071 807.122 183.749C805.648 185.376 804.911 187.409 804.911 189.85C804.911 192.443 805.75 194.477 807.427 195.951C809.156 197.375 811.19 198.086 813.529 198.086H849.144C851.839 198.086 853.923 197.273 855.398 195.646C856.872 194.019 857.609 191.985 857.609 189.545V161.861C857.609 159.268 856.796 157.209 855.169 155.683C853.593 154.158 851.585 153.395 849.144 153.395H805.597V134.558H849.144C851.89 134.558 854.838 135.041 857.991 136.007C861.194 136.973 864.143 138.549 866.837 140.736C869.583 142.871 871.871 145.693 873.701 149.201C875.532 152.658 876.447 156.878 876.447 161.861V189.697ZM990.233 217H961.634L921.672 178.41C919.435 176.376 918.392 173.834 918.545 170.784C918.646 169.36 919.002 168.038 919.612 166.818C920.273 165.547 921.163 164.479 922.282 163.615L958.507 134.406H990.233L943.56 172.004L990.233 217ZM913.511 217H893.683V99.7052H913.511V217ZM1017.92 207.009C1017.92 208.382 1017.64 209.679 1017.08 210.899C1016.57 212.068 1015.86 213.111 1014.94 214.026C1014.08 214.89 1013.04 215.576 1011.82 216.085C1010.65 216.593 1009.4 216.847 1008.08 216.847C1006.71 216.847 1005.41 216.593 1004.19 216.085C1003.02 215.576 1001.98 214.89 1001.06 214.026C1000.2 213.111 999.512 212.068 999.004 210.899C998.495 209.679 998.241 208.382 998.241 207.009C998.241 205.687 998.495 204.442 999.004 203.272C999.512 202.052 1000.2 201.01 1001.06 200.146C1001.98 199.23 1003.02 198.519 1004.19 198.01C1005.41 197.451 1006.71 197.171 1008.08 197.171C1009.4 197.171 1010.65 197.451 1011.82 198.01C1013.04 198.519 1014.08 199.23 1014.94 200.146C1015.86 201.01 1016.57 202.052 1017.08 203.272C1017.64 204.442 1017.92 205.687 1017.92 207.009ZM1124.76 217H1104.94V171.241C1104.94 168.648 1104.48 166.335 1103.56 164.301C1102.7 162.217 1101.5 160.437 1099.98 158.963C1098.45 157.488 1096.65 156.37 1094.56 155.607C1092.53 154.794 1090.32 154.387 1087.93 154.387H1053.23V217H1033.4V144.396C1033.4 143.023 1033.65 141.752 1034.16 140.583C1034.67 139.363 1035.38 138.32 1036.3 137.456C1037.21 136.541 1038.28 135.829 1039.5 135.321C1040.72 134.812 1042.02 134.558 1043.39 134.558H1088.08C1090.57 134.558 1093.19 134.838 1095.94 135.397C1098.73 135.956 1101.48 136.871 1104.17 138.143C1106.92 139.363 1109.51 140.939 1111.95 142.871C1114.44 144.752 1116.63 147.065 1118.51 149.811C1120.44 152.506 1121.97 155.633 1123.09 159.192C1124.2 162.751 1124.76 166.767 1124.76 171.241V217ZM1230.85 161.861C1230.85 164.606 1230.36 167.581 1229.4 170.784C1228.43 173.936 1226.86 176.885 1224.67 179.63C1222.53 182.325 1219.71 184.588 1216.21 186.418C1212.75 188.248 1208.53 189.163 1203.55 189.163H1167.78V170.326H1203.55C1206.24 170.326 1208.32 169.513 1209.8 167.886C1211.27 166.208 1212.01 164.149 1212.01 161.708C1212.01 159.115 1211.17 157.082 1209.49 155.607C1207.87 154.133 1205.88 153.395 1203.55 153.395H1167.78C1165.08 153.395 1163 154.234 1161.52 155.912C1160.05 157.539 1159.31 159.573 1159.31 162.013V189.697C1159.31 192.341 1160.13 194.4 1161.75 195.875C1163.43 197.349 1165.49 198.086 1167.93 198.086H1203.55V217H1167.78C1165.03 217 1162.06 216.517 1158.85 215.551C1155.7 214.585 1152.75 213.034 1150.01 210.899C1147.31 208.713 1145.05 205.891 1143.22 202.433C1141.39 198.925 1140.47 194.68 1140.47 189.697V161.861C1140.47 159.115 1140.96 156.166 1141.92 153.014C1142.89 149.811 1144.44 146.862 1146.58 144.167C1148.76 141.422 1151.58 139.134 1155.04 137.304C1158.55 135.473 1162.79 134.558 1167.78 134.558H1203.55C1206.29 134.558 1209.24 135.041 1212.39 136.007C1215.59 136.973 1218.54 138.549 1221.24 140.736C1223.98 142.871 1226.27 145.693 1228.1 149.201C1229.93 152.658 1230.85 156.878 1230.85 161.861ZM1319.16 154.387H1284.54V217H1264.48V154.387H1238.7V134.558H1264.48V107.637H1284.54V134.558H1319.16V154.387Z" fill="white" fill-opacity="0.8"/>
</g>
<defs>
<filter id="filter0_d_107_27" x="-7.83351" y="156.451" width="175.713" height="175.713" filterUnits="userSpaceOnUse" color-interpolation-filters="sRGB">
<feFlood flood-opacity="0" result="BackgroundImageFix"/>
<feColorMatrix in="SourceAlpha" type="matrix" values="0 0 0 0 0 0 0 0 0 0 0 0 0 0 0 0 0 0 127 0" result="hardAlpha"/>
<feOffset dy="9.76185"/>
<feGaussianBlur stdDeviation="4.88093"/>
<feColorMatrix type="matrix" values="0 0 0 0 0 0 0 0 0 0 0 0 0 0 0 0 0 0 0.25 0"/>
<feBlend mode="normal" in2="BackgroundImageFix" result="effect1_dropShadow_107_27"/>
<feBlend mode="normal" in="SourceGraphic" in2="effect1_dropShadow_107_27" result="shape"/>
</filter>
<filter id="filter1_d_107_27" x="68.9377" y="79.6798" width="175.713" height="175.713" filterUnits="userSpaceOnUse" color-interpolation-filters="sRGB">
<feFlood flood-opacity="0" result="BackgroundImageFix"/>
<feColorMatrix in="SourceAlpha" type="matrix" values="0 0 0 0 0 0 0 0 0 0 0 0 0 0 0 0 0 0 127 0" result="hardAlpha"/>
<feOffset dy="9.76185"/>
<feGaussianBlur stdDeviation="4.88093"/>
<feColorMatrix type="matrix" values="0 0 0 0 0 0 0 0 0 0 0 0 0 0 0 0 0 0 0.25 0"/>
<feBlend mode="normal" in2="BackgroundImageFix" result="effect1_dropShadow_107_27"/>
<feBlend mode="normal" in="SourceGraphic" in2="effect1_dropShadow_107_27" result="shape"/>
</filter>
<filter id="filter2_d_107_27" x="145.916" y="2.70178" width="175.713" height="175.713" filterUnits="userSpaceOnUse" color-interpolation-filters="sRGB">
<feFlood flood-opacity="0" result="BackgroundImageFix"/>
<feColorMatrix in="SourceAlpha" type="matrix" values="0 0 0 0 0 0 0 0 0 0 0 0 0 0 0 0 0 0 127 0" result="hardAlpha"/>
<feOffset dy="9.76185"/>
<feGaussianBlur stdDeviation="4.88093"/>
<feColorMatrix type="matrix" values="0 0 0 0 0 0 0 0 0 0 0 0 0 0 0 0 0 0 0.25 0"/>
<feBlend mode="normal" in2="BackgroundImageFix" result="effect1_dropShadow_107_27"/>
<feBlend mode="normal" in="SourceGraphic" in2="effect1_dropShadow_107_27" result="shape"/>
</filter>
<clipPath id="clip0_107_27">
<rect width="1324" height="325" fill="white"/>
</clipPath>
</defs>
</svg>
