<svg width="1324" height="325" viewBox="0 0 1324 325" fill="none" xmlns="http://www.w3.org/2000/svg">
<g clip-path="url(#clip0_107_27)">
<g filter="url(#filter0_d_107_27)">
<path d="M133.713 156.451H26.333C12.8547 156.451 1.92834 167.377 1.92834 180.856V288.236C1.92834 301.714 12.8547 312.641 26.333 312.641H133.713C147.192 312.641 158.118 301.714 158.118 288.236V180.856C158.118 167.377 147.192 156.451 133.713 156.451Z" fill="#35A7FF"/>
</g>
<mask id="mask0_107_27" style="mask-type:alpha" maskUnits="userSpaceOnUse" x="-4" y="126" width="210" height="209">
<path d="M169.473 162.179L205.486 334.757L-3.10456 126.167L169.473 162.179Z" fill="#AC2525"/>
</mask>
<g mask="url(#mask0_107_27)">
<rect x="1.18164" y="156.451" width="156.19" height="156.19" rx="24.4046" fill="#4FC1FF"/>
</g>
<g filter="url(#filter1_d_107_27)">
<rect x="78.6996" y="79.6798" width="156.19" height="156.19" rx="24.4046" fill="#F7F9F9"/>
</g>
<mask id="mask1_107_27" style="mask-type:alpha" maskUnits="userSpaceOnUse" x="73" y="49" width="210" height="210">
<path d="M246.473 85.4296L282.486 258.008L73.8954 49.4174L246.473 85.4296Z" fill="#AC2525"/>
</mask>
<g mask="url(#mask1_107_27)">
<rect x="78.1816" y="79.7018" width="156.19" height="156.19" rx="24.4046" fill="white"/>
</g>
<g filter="url(#filter2_d_107_27)">
<rect x="155.677" y="2.70178" width="156.19" height="156.19" rx="24.4046" fill="#FF5154"/>
</g>
<mask id="mask2_107_27" style="mask-type:alpha" maskUnits="userSpaceOnUse" x="151" y="-28" width="209" height="210">
<path d="M323.969 8.4296L359.981 181.008L151.391 -27.5826L323.969 8.4296Z" fill="#AC2525"/>
</mask>
<g mask="url(#mask2_107_27)">
<rect x="155.677" y="2.70178" width="156.19" height="156.19" rx="24.4046" fill="#FF6B6E"/>
</g>
<path d="M488.498 172.395C488.498 176.92 487.939 180.962 486.82 184.521C485.702 188.08 484.176 191.233 482.244 193.978C480.363 196.673 478.177 198.986 475.685 200.918C473.194 202.85 470.576 204.427 467.83 205.647C465.136 206.867 462.39 207.757 459.594 208.316C456.848 208.875 454.255 209.155 451.815 209.155H406.971V189.326H451.815C454.357 189.123 456.645 188.614 458.678 187.801C460.763 186.937 462.543 185.793 464.017 184.369C465.491 182.945 466.635 181.242 467.449 179.259C468.262 177.226 468.669 174.938 468.669 172.395V163.396C468.415 160.905 467.881 158.617 467.068 156.532C466.254 154.448 465.136 152.668 463.712 151.194C462.339 149.719 460.661 148.575 458.678 147.762C456.696 146.898 454.408 146.465 451.815 146.465H407.124C404.48 146.465 402.472 147.152 401.099 148.525C399.726 149.897 399.04 151.88 399.04 154.473V236H379.211V154.473C379.211 149.389 380.126 145.067 381.956 141.508C383.838 137.949 386.151 135.077 388.896 132.89C391.693 130.704 394.718 129.128 397.972 128.162C401.226 127.145 404.226 126.637 406.971 126.637H451.815C456.289 126.637 460.305 127.221 463.864 128.391C467.423 129.509 470.55 131.035 473.245 132.967C475.991 134.848 478.304 137.034 480.185 139.525C482.117 142.017 483.693 144.635 484.913 147.381C486.185 150.075 487.1 152.821 487.659 155.617C488.218 158.363 488.498 160.956 488.498 163.396V172.395ZM585.811 208.697C585.811 211.443 585.328 214.417 584.362 217.62C583.396 220.773 581.82 223.721 579.634 226.467C577.499 229.162 574.677 231.424 571.169 233.254C567.711 235.085 563.491 236 558.509 236H522.741C519.995 236 517.021 235.517 513.818 234.551C510.665 233.585 507.717 232.034 504.971 229.899C502.276 227.713 500.014 224.891 498.183 221.433C496.353 217.925 495.438 213.68 495.438 208.697C495.438 205.952 495.921 202.977 496.887 199.774C497.853 196.571 499.404 193.622 501.539 190.928C503.725 188.182 506.547 185.894 510.004 184.064C513.513 182.234 517.758 181.318 522.741 181.318H558.509V200.232H522.741C520.046 200.232 517.961 201.071 516.487 202.749C515.013 204.376 514.275 206.409 514.275 208.85C514.275 211.443 515.114 213.477 516.792 214.951C518.521 216.375 520.554 217.086 522.893 217.086H558.509C561.203 217.086 563.288 216.273 564.762 214.646C566.237 213.019 566.974 210.985 566.974 208.545V180.861C566.974 178.268 566.161 176.209 564.534 174.683C562.957 173.158 560.949 172.395 558.509 172.395H514.962V153.558H558.509C561.254 153.558 564.203 154.041 567.355 155.007C570.558 155.973 573.507 157.549 576.202 159.736C578.948 161.871 581.235 164.693 583.066 168.201C584.896 171.658 585.811 175.878 585.811 180.861V208.697ZM694.107 236H674.278V190.241C674.278 187.648 673.821 185.335 672.905 183.301C672.041 181.217 670.846 179.437 669.321 177.963C667.796 176.488 665.991 175.37 663.906 174.607C661.872 173.794 659.661 173.387 657.271 173.387H622.571V236H602.742V163.396C602.742 162.023 602.996 160.752 603.505 159.583C604.013 158.363 604.725 157.32 605.64 156.456C606.555 155.541 607.623 154.829 608.843 154.321C610.063 153.812 611.36 153.558 612.733 153.558H657.424C659.915 153.558 662.533 153.838 665.279 154.397C668.075 154.956 670.821 155.871 673.516 157.143C676.261 158.363 678.854 159.939 681.295 161.871C683.786 163.752 685.972 166.065 687.853 168.811C689.785 171.506 691.311 174.633 692.429 178.192C693.548 181.751 694.107 185.767 694.107 190.241V236ZM784.023 173.387H749.399V236H729.341V173.387H703.564V153.558H729.341V126.637H749.399V153.558H784.023V173.387ZM877.447 208.697C877.447 211.443 876.964 214.417 875.998 217.62C875.032 220.773 873.456 223.721 871.269 226.467C869.134 229.162 866.312 231.424 862.804 233.254C859.347 235.085 855.127 236 850.144 236H814.376C811.63 236 808.656 235.517 805.453 234.551C802.301 233.585 799.352 232.034 796.606 229.899C793.912 227.713 791.649 224.891 789.819 221.433C787.989 217.925 787.073 213.68 787.073 208.697C787.073 205.952 787.556 202.977 788.522 199.774C789.488 196.571 791.039 193.622 793.174 190.928C795.361 188.182 798.183 185.894 801.64 184.064C805.148 182.234 809.393 181.318 814.376 181.318H850.144V200.232H814.376C811.681 200.232 809.597 201.071 808.122 202.749C806.648 204.376 805.911 206.409 805.911 208.85C805.911 211.443 806.75 213.477 808.427 214.951C810.156 216.375 812.19 217.086 814.529 217.086H850.144C852.839 217.086 854.923 216.273 856.398 214.646C857.872 213.019 858.609 210.985 858.609 208.545V180.861C858.609 178.268 857.796 176.209 856.169 174.683C854.593 173.158 852.585 172.395 850.144 172.395H806.597V153.558H850.144C852.89 153.558 855.838 154.041 858.991 155.007C862.194 155.973 865.143 157.549 867.837 159.736C870.583 161.871 872.871 164.693 874.701 168.201C876.532 171.658 877.447 175.878 877.447 180.861V208.697ZM991.233 236H962.634L922.672 197.41C920.435 195.376 919.392 192.834 919.545 189.784C919.646 188.36 920.002 187.038 920.612 185.818C921.273 184.547 922.163 183.479 923.282 182.615L959.507 153.406H991.233L944.56 191.004L991.233 236ZM914.511 236H894.683V118.705H914.511V236ZM1018.92 226.009C1018.92 227.382 1018.64 228.679 1018.08 229.899C1017.57 231.068 1016.86 232.111 1015.94 233.026C1015.08 233.89 1014.04 234.576 1012.82 235.085C1011.65 235.593 1010.4 235.847 1009.08 235.847C1007.71 235.847 1006.41 235.593 1005.19 235.085C1004.02 234.576 1002.98 233.89 1002.06 233.026C1001.2 232.111 1000.51 231.068 1000 229.899C999.495 228.679 999.241 227.382 999.241 226.009C999.241 224.687 999.495 223.442 1000 222.272C1000.51 221.052 1001.2 220.01 1002.06 219.146C1002.98 218.23 1004.02 217.519 1005.19 217.01C1006.41 216.451 1007.71 216.171 1009.08 216.171C1010.4 216.171 1011.65 216.451 1012.82 217.01C1014.04 217.519 1015.08 218.23 1015.94 219.146C1016.86 220.01 1017.57 221.052 1018.08 222.272C1018.64 223.442 1018.92 224.687 1018.92 226.009ZM1125.76 236H1105.94V190.241C1105.94 187.648 1105.48 185.335 1104.56 183.301C1103.7 181.217 1102.5 179.437 1100.98 177.963C1099.45 176.488 1097.65 175.37 1095.56 174.607C1093.53 173.794 1091.32 173.387 1088.93 173.387H1054.23V236H1034.4V163.396C1034.4 162.023 1034.65 160.752 1035.16 159.583C1035.67 158.363 1036.38 157.32 1037.3 156.456C1038.21 155.541 1039.28 154.829 1040.5 154.321C1041.72 153.812 1043.02 153.558 1044.39 153.558H1089.08C1091.57 153.558 1094.19 153.838 1096.94 154.397C1099.73 154.956 1102.48 155.871 1105.17 157.143C1107.92 158.363 1110.51 159.939 1112.95 161.871C1115.44 163.752 1117.63 166.065 1119.51 168.811C1121.44 171.506 1122.97 174.633 1124.09 178.192C1125.2 181.751 1125.76 185.767 1125.76 190.241V236ZM1231.85 180.861C1231.85 183.606 1231.36 186.581 1230.4 189.784C1229.43 192.936 1227.86 195.885 1225.67 198.63C1223.53 201.325 1220.71 203.588 1217.21 205.418C1213.75 207.248 1209.53 208.163 1204.55 208.163H1168.78V189.326H1204.55C1207.24 189.326 1209.32 188.513 1210.8 186.886C1212.27 185.208 1213.01 183.149 1213.01 180.708C1213.01 178.115 1212.17 176.082 1210.49 174.607C1208.87 173.133 1206.88 172.395 1204.55 172.395H1168.78C1166.08 172.395 1164 173.234 1162.52 174.912C1161.05 176.539 1160.31 178.573 1160.31 181.013V208.697C1160.31 211.341 1161.13 213.4 1162.75 214.875C1164.43 216.349 1166.49 217.086 1168.93 217.086H1204.55V236H1168.78C1166.03 236 1163.06 235.517 1159.85 234.551C1156.7 233.585 1153.75 232.034 1151.01 229.899C1148.31 227.713 1146.05 224.891 1144.22 221.433C1142.39 217.925 1141.47 213.68 1141.47 208.697V180.861C1141.47 178.115 1141.96 175.166 1142.92 172.014C1143.89 168.811 1145.44 165.862 1147.58 163.167C1149.76 160.422 1152.58 158.134 1156.04 156.304C1159.55 154.473 1163.79 153.558 1168.78 153.558H1204.55C1207.29 153.558 1210.24 154.041 1213.39 155.007C1216.59 155.973 1219.54 157.549 1222.24 159.736C1224.98 161.871 1227.27 164.693 1229.1 168.201C1230.93 171.658 1231.85 175.878 1231.85 180.861ZM1320.16 173.387H1285.54V236H1265.48V173.387H1239.7V153.558H1265.48V126.637H1285.54V153.558H1320.16V173.387Z" fill="white" fill-opacity="0.8"/>
</g>
<defs>
<filter id="filter0_d_107_27" x="-7.83351" y="156.451" width="175.713" height="175.713" filterUnits="userSpaceOnUse" color-interpolation-filters="sRGB">
<feFlood flood-opacity="0" result="BackgroundImageFix"/>
<feColorMatrix in="SourceAlpha" type="matrix" values="0 0 0 0 0 0 0 0 0 0 0 0 0 0 0 0 0 0 127 0" result="hardAlpha"/>
<feOffset dy="9.76185"/>
<feGaussianBlur stdDeviation="4.88093"/>
<feColorMatrix type="matrix" values="0 0 0 0 0 0 0 0 0 0 0 0 0 0 0 0 0 0 0.25 0"/>
<feBlend mode="normal" in2="BackgroundImageFix" result="effect1_dropShadow_107_27"/>
<feBlend mode="normal" in="SourceGraphic" in2="effect1_dropShadow_107_27" result="shape"/>
</filter>
<filter id="filter1_d_107_27" x="68.9377" y="79.6798" width="175.713" height="175.713" filterUnits="userSpaceOnUse" color-interpolation-filters="sRGB">
<feFlood flood-opacity="0" result="BackgroundImageFix"/>
<feColorMatrix in="SourceAlpha" type="matrix" values="0 0 0 0 0 0 0 0 0 0 0 0 0 0 0 0 0 0 127 0" result="hardAlpha"/>
<feOffset dy="9.76185"/>
<feGaussianBlur stdDeviation="4.88093"/>
<feColorMatrix type="matrix" values="0 0 0 0 0 0 0 0 0 0 0 0 0 0 0 0 0 0 0.25 0"/>
<feBlend mode="normal" in2="BackgroundImageFix" result="effect1_dropShadow_107_27"/>
<feBlend mode="normal" in="SourceGraphic" in2="effect1_dropShadow_107_27" result="shape"/>
</filter>
<filter id="filter2_d_107_27" x="145.916" y="2.70178" width="175.713" height="175.713" filterUnits="userSpaceOnUse" color-interpolation-filters="sRGB">
<feFlood flood-opacity="0" result="BackgroundImageFix"/>
<feColorMatrix in="SourceAlpha" type="matrix" values="0 0 0 0 0 0 0 0 0 0 0 0 0 0 0 0 0 0 127 0" result="hardAlpha"/>
<feOffset dy="9.76185"/>
<feGaussianBlur stdDeviation="4.88093"/>
<feColorMatrix type="matrix" values="0 0 0 0 0 0 0 0 0 0 0 0 0 0 0 0 0 0 0.25 0"/>
<feBlend mode="normal" in2="BackgroundImageFix" result="effect1_dropShadow_107_27"/>
<feBlend mode="normal" in="SourceGraphic" in2="effect1_dropShadow_107_27" result="shape"/>
</filter>
<clipPath id="clip0_107_27">
<rect width="1324" height="325" fill="white"/>
</clipPath>
</defs>
</svg>
