<svg width="571" height="146" viewBox="0 0 571 146" fill="none" xmlns="http://www.w3.org/2000/svg">
<g clip-path="url(#clip0_15_40)">
<g filter="url(#filter0_d_15_40)">
<path d="M90 73H46C40.4772 73 36 77.4772 36 83V127C36 132.523 40.4772 137 46 137H90C95.5228 137 100 132.523 100 127V83C100 77.4772 95.5228 73 90 73Z" fill="#FAFAFA"/>
</g>
<mask id="mask0_15_40" style="mask-type:alpha" maskUnits="userSpaceOnUse" x="33" y="60" width="87" height="87">
<path d="M104.653 75.347L119.409 146.062L33.9377 60.5907L104.653 75.347Z" fill="#AC2525"/>
</mask>
<g mask="url(#mask0_15_40)">
<rect x="35.694" y="73" width="64" height="64" rx="10" fill="#F5F5F5"/>
</g>
<g filter="url(#filter1_d_15_40)">
<rect x="67" y="41" width="64" height="64" rx="10" fill="#C62828"/>
</g>
<mask id="mask1_15_40" style="mask-type:alpha" maskUnits="userSpaceOnUse" x="59" y="23" width="87" height="87">
<path d="M130.653 38.347L145.409 109.062L59.9377 23.5907L130.653 38.347Z" fill="#AC2525"/>
</mask>
<g mask="url(#mask1_15_40)">
<rect x="67.6941" y="41" width="64" height="64" rx="10" fill="#B71C1C"/>
</g>
<g filter="url(#filter2_d_15_40)">
<rect x="99" y="10" width="64" height="64" rx="10" fill="#FAFAFA"/>
</g>
<mask id="mask2_15_40" style="mask-type:alpha" maskUnits="userSpaceOnUse" x="97" y="-3" width="86" height="87">
<path d="M167.959 12.347L182.715 83.0623L97.2437 -2.40928L167.959 12.347Z" fill="#AC2525"/>
</mask>
<g mask="url(#mask2_15_40)">
<rect x="99" y="10" width="64" height="64" rx="10" fill="#F5F5F5"/>
</g>
<path d="M235.188 46.9375C235.188 48.7917 234.958 50.4479 234.5 51.9062C234.042 53.3646 233.417 54.6562 232.625 55.7812C231.854 56.8854 230.958 57.8333 229.938 58.625C228.917 59.4167 227.844 60.0625 226.719 60.5625C225.615 61.0625 224.49 61.4271 223.344 61.6562C222.219 61.8854 221.156 62 220.156 62H201.781V53.875H220.156C221.198 53.7917 222.135 53.5833 222.969 53.25C223.823 52.8958 224.552 52.4271 225.156 51.8438C225.76 51.2604 226.229 50.5625 226.562 49.75C226.896 48.9167 227.062 47.9792 227.062 46.9375V43.25C226.958 42.2292 226.74 41.2917 226.406 40.4375C226.073 39.5833 225.615 38.8542 225.031 38.25C224.469 37.6458 223.781 37.1771 222.969 36.8438C222.156 36.4896 221.219 36.3125 220.156 36.3125H201.844C200.76 36.3125 199.938 36.5938 199.375 37.1562C198.812 37.7188 198.531 38.5312 198.531 39.5938V73H190.406V39.5938C190.406 37.5104 190.781 35.7396 191.531 34.2812C192.302 32.8229 193.25 31.6458 194.375 30.75C195.521 29.8542 196.76 29.2083 198.094 28.8125C199.427 28.3958 200.656 28.1875 201.781 28.1875H220.156C221.99 28.1875 223.635 28.4271 225.094 28.9062C226.552 29.3646 227.833 29.9896 228.938 30.7812C230.062 31.5521 231.01 32.4479 231.781 33.4688C232.573 34.4896 233.219 35.5625 233.719 36.6875C234.24 37.7917 234.615 38.9167 234.844 40.0625C235.073 41.1875 235.188 42.25 235.188 43.25V46.9375ZM275.062 61.8125C275.062 62.9375 274.865 64.1562 274.469 65.4688C274.073 66.7604 273.427 67.9688 272.531 69.0938C271.656 70.1979 270.5 71.125 269.062 71.875C267.646 72.625 265.917 73 263.875 73H249.219C248.094 73 246.875 72.8021 245.562 72.4062C244.271 72.0104 243.062 71.375 241.938 70.5C240.833 69.6042 239.906 68.4479 239.156 67.0312C238.406 65.5938 238.031 63.8542 238.031 61.8125C238.031 60.6875 238.229 59.4688 238.625 58.1562C239.021 56.8438 239.656 55.6354 240.531 54.5312C241.427 53.4062 242.583 52.4688 244 51.7188C245.438 50.9688 247.177 50.5938 249.219 50.5938H263.875V58.3438H249.219C248.115 58.3438 247.26 58.6875 246.656 59.375C246.052 60.0417 245.75 60.875 245.75 61.875C245.75 62.9375 246.094 63.7708 246.781 64.375C247.49 64.9583 248.323 65.25 249.281 65.25H263.875C264.979 65.25 265.833 64.9167 266.438 64.25C267.042 63.5833 267.344 62.75 267.344 61.75V50.4062C267.344 49.3438 267.01 48.5 266.344 47.875C265.698 47.25 264.875 46.9375 263.875 46.9375H246.031V39.2188H263.875C265 39.2188 266.208 39.4167 267.5 39.8125C268.812 40.2083 270.021 40.8542 271.125 41.75C272.25 42.625 273.188 43.7812 273.938 45.2188C274.688 46.6354 275.062 48.3646 275.062 50.4062V61.8125ZM319.438 73H311.312V54.25C311.312 53.1875 311.125 52.2396 310.75 51.4062C310.396 50.5521 309.906 49.8229 309.281 49.2188C308.656 48.6146 307.917 48.1562 307.062 47.8438C306.229 47.5104 305.323 47.3438 304.344 47.3438H290.125V73H282V43.25C282 42.6875 282.104 42.1667 282.312 41.6875C282.521 41.1875 282.812 40.7604 283.188 40.4062C283.562 40.0312 284 39.7396 284.5 39.5312C285 39.3229 285.531 39.2188 286.094 39.2188H304.406C305.427 39.2188 306.5 39.3333 307.625 39.5625C308.771 39.7917 309.896 40.1667 311 40.6875C312.125 41.1875 313.188 41.8333 314.188 42.625C315.208 43.3958 316.104 44.3438 316.875 45.4688C317.667 46.5729 318.292 47.8542 318.75 49.3125C319.208 50.7708 319.438 52.4167 319.438 54.25V73ZM355.688 54.25H326.375V46.9375H355.688V54.25ZM416.188 73H408V46.3125L393.594 71.6562C393.24 72.3021 392.74 72.7917 392.094 73.125C391.469 73.4583 390.792 73.625 390.062 73.625C389.354 73.625 388.688 73.4583 388.062 73.125C387.458 72.7917 386.979 72.3021 386.625 71.6562L372.156 46.3125V73H364.031V31.6562C364.031 30.7188 364.302 29.8854 364.844 29.1562C365.406 28.4271 366.135 27.9375 367.031 27.6875C367.469 27.5833 367.906 27.5521 368.344 27.5938C368.781 27.6146 369.198 27.7083 369.594 27.875C370.01 28.0208 370.385 28.2396 370.719 28.5312C371.052 28.8021 371.333 29.1354 371.562 29.5312L390.062 61.6875L408.562 29.5312C409.042 28.7396 409.698 28.1771 410.531 27.8438C411.385 27.5104 412.271 27.4583 413.188 27.6875C414.062 27.9375 414.781 28.4271 415.344 29.1562C415.906 29.8854 416.188 30.7188 416.188 31.6562V73ZM460.844 50.4062C460.844 51.5312 460.646 52.75 460.25 54.0625C459.854 55.3542 459.208 56.5625 458.312 57.6875C457.438 58.7917 456.281 59.7188 454.844 60.4688C453.427 61.2188 451.698 61.5938 449.656 61.5938H435V53.875H449.656C450.76 53.875 451.615 53.5417 452.219 52.875C452.823 52.1875 453.125 51.3438 453.125 50.3438C453.125 49.2812 452.781 48.4479 452.094 47.8438C451.427 47.2396 450.615 46.9375 449.656 46.9375H435C433.896 46.9375 433.042 47.2812 432.438 47.9688C431.833 48.6354 431.531 49.4688 431.531 50.4688V61.8125C431.531 62.8958 431.865 63.7396 432.531 64.3438C433.219 64.9479 434.062 65.25 435.062 65.25H449.656V73H435C433.875 73 432.656 72.8021 431.344 72.4062C430.052 72.0104 428.844 71.375 427.719 70.5C426.615 69.6042 425.688 68.4479 424.938 67.0312C424.188 65.5938 423.812 63.8542 423.812 61.8125V50.4062C423.812 49.2812 424.01 48.0729 424.406 46.7812C424.802 45.4688 425.438 44.2604 426.312 43.1562C427.208 42.0312 428.365 41.0938 429.781 40.3438C431.219 39.5938 432.958 39.2188 435 39.2188H449.656C450.781 39.2188 451.99 39.4167 453.281 39.8125C454.594 40.2083 455.802 40.8542 456.906 41.75C458.031 42.625 458.969 43.7812 459.719 45.2188C460.469 46.6354 460.844 48.3646 460.844 50.4062ZM503.375 61.5938C503.375 62.9896 503.198 64.25 502.844 65.375C502.49 66.4792 502.021 67.4583 501.438 68.3125C500.854 69.1458 500.177 69.8646 499.406 70.4688C498.635 71.0521 497.823 71.5312 496.969 71.9062C496.135 72.2812 495.281 72.5625 494.406 72.75C493.552 72.9167 492.74 73 491.969 73H477.312C475.917 73 474.667 72.8229 473.562 72.4688C472.458 72.1146 471.479 71.6458 470.625 71.0625C469.792 70.4583 469.073 69.7708 468.469 69C467.885 68.2292 467.406 67.4271 467.031 66.5938C466.656 65.7396 466.375 64.8854 466.188 64.0312C466.021 63.1562 465.938 62.3438 465.938 61.5938V50.5938C465.938 48.5104 466.312 46.75 467.062 45.3125C467.833 43.8542 468.781 42.6771 469.906 41.7812C471.052 40.8646 472.292 40.2083 473.625 39.8125C474.958 39.4167 476.188 39.2188 477.312 39.2188H491.969V47.3438H477.375C476.292 47.3438 475.469 47.625 474.906 48.1875C474.344 48.7292 474.062 49.5312 474.062 50.5938V61.5312C474.062 62.6354 474.333 63.4688 474.875 64.0312C475.438 64.5938 476.25 64.875 477.312 64.875H491.969C493.073 64.875 493.896 64.5938 494.438 64.0312C494.979 63.4688 495.25 62.6562 495.25 61.5938V24.9375H503.375V61.5938ZM519.375 32.2812H511.25V24.9375H519.375V32.2812ZM519.375 73H511.25V39.2188H519.375V73ZM562.062 61.8125C562.062 62.9375 561.865 64.1562 561.469 65.4688C561.073 66.7604 560.427 67.9688 559.531 69.0938C558.656 70.1979 557.5 71.125 556.062 71.875C554.646 72.625 552.917 73 550.875 73H536.219C535.094 73 533.875 72.8021 532.562 72.4062C531.271 72.0104 530.062 71.375 528.938 70.5C527.833 69.6042 526.906 68.4479 526.156 67.0312C525.406 65.5938 525.031 63.8542 525.031 61.8125C525.031 60.6875 525.229 59.4688 525.625 58.1562C526.021 56.8438 526.656 55.6354 527.531 54.5312C528.427 53.4062 529.583 52.4688 531 51.7188C532.438 50.9688 534.177 50.5938 536.219 50.5938H550.875V58.3438H536.219C535.115 58.3438 534.26 58.6875 533.656 59.375C533.052 60.0417 532.75 60.875 532.75 61.875C532.75 62.9375 533.094 63.7708 533.781 64.375C534.49 64.9583 535.323 65.25 536.281 65.25H550.875C551.979 65.25 552.833 64.9167 553.438 64.25C554.042 63.5833 554.344 62.75 554.344 61.75V50.4062C554.344 49.3438 554.01 48.5 553.344 47.875C552.698 47.25 551.875 46.9375 550.875 46.9375H533.031V39.2188H550.875C552 39.2188 553.208 39.4167 554.5 39.8125C555.812 40.2083 557.021 40.8542 558.125 41.75C559.25 42.625 560.188 43.7812 560.938 45.2188C561.688 46.6354 562.062 48.3646 562.062 50.4062V61.8125Z" fill="#EEEEEE"/>
<path d="M328.477 114.617C328.477 115.367 328.344 116.172 328.078 117.031C327.828 117.891 327.406 118.688 326.812 119.422C326.234 120.156 325.477 120.773 324.539 121.273C323.602 121.758 322.453 122 321.094 122H297.961C297.523 122 297.117 121.922 296.742 121.766C296.367 121.609 296.039 121.398 295.758 121.133C295.492 120.852 295.281 120.523 295.125 120.148C294.969 119.773 294.891 119.367 294.891 118.93V91.4609C294.891 91.0391 294.969 90.6406 295.125 90.2656C295.281 89.8906 295.492 89.5625 295.758 89.2812C296.039 89 296.367 88.7812 296.742 88.625C297.117 88.4688 297.523 88.3906 297.961 88.3906H318.352C319.102 88.3906 319.906 88.5234 320.766 88.7891C321.625 89.0547 322.422 89.4844 323.156 90.0781C323.906 90.6562 324.523 91.4141 325.008 92.3516C325.508 93.2891 325.758 94.4375 325.758 95.7969V96.9453C325.758 98.0234 325.578 99.1875 325.219 100.438C324.859 101.672 324.281 102.844 323.484 103.953C324.172 104.375 324.812 104.883 325.406 105.477C326.016 106.07 326.547 106.758 327 107.539C327.453 108.32 327.812 109.203 328.078 110.188C328.344 111.172 328.477 112.258 328.477 113.445V114.617ZM322.383 113.445C322.383 112.648 322.258 111.938 322.008 111.312C321.758 110.672 321.406 110.125 320.953 109.672C320.5 109.219 319.953 108.875 319.312 108.641C318.672 108.391 317.953 108.266 317.156 108.266H303.422V102.125H314.414C315.211 102.125 315.93 102.008 316.57 101.773C317.211 101.523 317.758 101.172 318.211 100.719C318.664 100.266 319.008 99.7266 319.242 99.1016C319.492 98.4609 319.617 97.7422 319.617 96.9453V95.7969C319.617 94.9219 319.195 94.4844 318.352 94.4844H300.984V115.906H321.094C321.203 115.906 321.336 115.898 321.492 115.883C321.648 115.867 321.789 115.82 321.914 115.742C322.039 115.664 322.148 115.531 322.242 115.344C322.336 115.156 322.383 114.898 322.383 114.57V113.445ZM344.25 122H341.531C340.656 122 339.719 121.852 338.719 121.555C337.734 121.258 336.812 120.773 335.953 120.102C335.094 119.414 334.383 118.531 333.82 117.453C333.258 116.359 332.977 115.023 332.977 113.445V85.9531H339.07V113.445C339.07 114.195 339.305 114.797 339.773 115.25C340.242 115.688 340.828 115.906 341.531 115.906H344.25V122ZM375.727 113.445C375.727 114.492 375.594 115.438 375.328 116.281C375.062 117.109 374.711 117.844 374.273 118.484C373.836 119.109 373.328 119.648 372.75 120.102C372.172 120.539 371.562 120.898 370.922 121.18C370.297 121.461 369.656 121.672 369 121.812C368.359 121.938 367.75 122 367.172 122H356.18C355.336 122 354.414 121.852 353.414 121.555C352.414 121.258 351.484 120.773 350.625 120.102C349.781 119.414 349.07 118.531 348.492 117.453C347.93 116.359 347.648 115.023 347.648 113.445V105.195C347.648 103.633 347.93 102.312 348.492 101.234C349.07 100.141 349.781 99.2578 350.625 98.5859C351.484 97.8984 352.414 97.4062 353.414 97.1094C354.414 96.8125 355.336 96.6641 356.18 96.6641H367.172C368.734 96.6641 370.062 96.9453 371.156 97.5078C372.25 98.0703 373.133 98.7812 373.805 99.6406C374.477 100.484 374.961 101.406 375.258 102.406C375.57 103.406 375.727 104.336 375.727 105.195V113.445ZM369.633 105.242C369.633 104.398 369.422 103.773 369 103.367C368.578 102.961 367.969 102.758 367.172 102.758H356.227C355.414 102.758 354.797 102.969 354.375 103.391C353.953 103.797 353.742 104.398 353.742 105.195V113.445C353.742 114.242 353.953 114.852 354.375 115.273C354.797 115.695 355.414 115.906 356.227 115.906H367.172C368 115.906 368.617 115.695 369.023 115.273C369.43 114.852 369.633 114.242 369.633 113.445V105.242ZM408.492 124.438C408.492 125.484 408.359 126.422 408.094 127.25C407.828 128.094 407.477 128.828 407.039 129.453C406.602 130.094 406.094 130.633 405.516 131.07C404.938 131.523 404.328 131.891 403.688 132.172C403.062 132.453 402.422 132.656 401.766 132.781C401.125 132.922 400.516 132.992 399.938 132.992H388.945V126.898H399.938C400.766 126.898 401.383 126.688 401.789 126.266C402.195 125.844 402.398 125.234 402.398 124.438V105.195C402.398 104.398 402.195 103.797 401.789 103.391C401.383 102.969 400.766 102.758 399.938 102.758H388.945C388.195 102.758 387.602 102.992 387.164 103.461C386.727 103.914 386.508 104.492 386.508 105.195V113.445C386.508 114.242 386.719 114.852 387.141 115.273C387.562 115.695 388.18 115.906 388.992 115.906H399.938V122H388.945C388.367 122 387.758 121.938 387.117 121.812C386.477 121.672 385.836 121.461 385.195 121.18C384.57 120.898 383.969 120.539 383.391 120.102C382.812 119.648 382.305 119.109 381.867 118.484C381.43 117.844 381.078 117.109 380.812 116.281C380.547 115.438 380.414 114.492 380.414 113.445V105.195C380.414 104.617 380.477 104.008 380.602 103.367C380.742 102.727 380.953 102.094 381.234 101.469C381.516 100.828 381.875 100.219 382.312 99.6406C382.766 99.0625 383.305 98.5547 383.93 98.1172C384.57 97.6797 385.305 97.3281 386.133 97.0625C386.961 96.7969 387.898 96.6641 388.945 96.6641H399.938C400.516 96.6641 401.125 96.7344 401.766 96.875C402.422 97 403.062 97.2031 403.688 97.4844C404.328 97.7656 404.938 98.1328 405.516 98.5859C406.094 99.0234 406.602 99.5625 407.039 100.203C407.477 100.828 407.828 101.555 408.094 102.383C408.359 103.211 408.492 104.148 408.492 105.195V124.438Z" fill="#EEEEEE"/>
</g>
<defs>
<filter id="filter0_d_15_40" x="32" y="73" width="72" height="72" filterUnits="userSpaceOnUse" color-interpolation-filters="sRGB">
<feFlood flood-opacity="0" result="BackgroundImageFix"/>
<feColorMatrix in="SourceAlpha" type="matrix" values="0 0 0 0 0 0 0 0 0 0 0 0 0 0 0 0 0 0 127 0" result="hardAlpha"/>
<feOffset dy="4"/>
<feGaussianBlur stdDeviation="2"/>
<feColorMatrix type="matrix" values="0 0 0 0 0 0 0 0 0 0 0 0 0 0 0 0 0 0 0.25 0"/>
<feBlend mode="normal" in2="BackgroundImageFix" result="effect1_dropShadow_15_40"/>
<feBlend mode="normal" in="SourceGraphic" in2="effect1_dropShadow_15_40" result="shape"/>
</filter>
<filter id="filter1_d_15_40" x="63" y="41" width="72" height="72" filterUnits="userSpaceOnUse" color-interpolation-filters="sRGB">
<feFlood flood-opacity="0" result="BackgroundImageFix"/>
<feColorMatrix in="SourceAlpha" type="matrix" values="0 0 0 0 0 0 0 0 0 0 0 0 0 0 0 0 0 0 127 0" result="hardAlpha"/>
<feOffset dy="4"/>
<feGaussianBlur stdDeviation="2"/>
<feColorMatrix type="matrix" values="0 0 0 0 0 0 0 0 0 0 0 0 0 0 0 0 0 0 0.25 0"/>
<feBlend mode="normal" in2="BackgroundImageFix" result="effect1_dropShadow_15_40"/>
<feBlend mode="normal" in="SourceGraphic" in2="effect1_dropShadow_15_40" result="shape"/>
</filter>
<filter id="filter2_d_15_40" x="95" y="10" width="72" height="72" filterUnits="userSpaceOnUse" color-interpolation-filters="sRGB">
<feFlood flood-opacity="0" result="BackgroundImageFix"/>
<feColorMatrix in="SourceAlpha" type="matrix" values="0 0 0 0 0 0 0 0 0 0 0 0 0 0 0 0 0 0 127 0" result="hardAlpha"/>
<feOffset dy="4"/>
<feGaussianBlur stdDeviation="2"/>
<feColorMatrix type="matrix" values="0 0 0 0 0 0 0 0 0 0 0 0 0 0 0 0 0 0 0.25 0"/>
<feBlend mode="normal" in2="BackgroundImageFix" result="effect1_dropShadow_15_40"/>
<feBlend mode="normal" in="SourceGraphic" in2="effect1_dropShadow_15_40" result="shape"/>
</filter>
<clipPath id="clip0_15_40">
<rect width="571" height="146" fill="white"/>
</clipPath>
</defs>
</svg>
