<?xml version="1.0" standalone="no"?>
<!DOCTYPE svg PUBLIC "-//W3C//DTD SVG 20010904//EN"
 "http://www.w3.org/TR/2001/REC-SVG-20010904/DTD/svg10.dtd">
<svg version="1.0" xmlns="http://www.w3.org/2000/svg"
 width="352.000000pt" height="352.000000pt" viewBox="0 0 352.000000 352.000000"
 preserveAspectRatio="xMidYMid meet">
<metadata>
Created by potrace 1.14, written by Peter Selinger 2001-2017
</metadata>
<g transform="translate(0.000000,352.000000) scale(0.100000,-0.100000)"
fill="#000000" stroke="none">
<path d="M1950 3258 c-45 -8 -114 -44 -142 -75 -10 -10 -27 -41 -39 -68 -22
-48 -23 -63 -23 -335 l-1 -285 -285 -1 c-265 -1 -288 -2 -332 -21 -77 -35
-135 -105 -145 -178 -3 -16 -5 -151 -6 -300 l-2 -270 -275 -1 c-151 0 -291 -4
-310 -8 -67 -16 -130 -71 -162 -142 -19 -45 -20 -64 -18 -632 1 -625 1 -622
10 -622 3 0 11 -13 18 -29 27 -60 102 -114 173 -124 20 -2 42 -8 48 -11 6 -4
11 -3 11 2 0 10 30 9 48 -2 6 -4 12 -3 12 1 0 5 17 8 38 7 54 -3 54 -3 46 -16
-5 -9 -2 -8 9 1 18 14 99 23 91 9 -6 -10 10 -11 20 -1 11 11 130 9 139 -2 4
-7 9 -7 15 0 4 6 14 9 22 9 8 -1 23 -2 33 -3 12 -1 16 -6 11 -14 -4 -6 1 -4
12 5 14 12 24 14 37 7 12 -7 17 -6 17 2 0 7 7 4 15 -7 10 -12 14 -14 13 -4 -3
15 27 20 53 8 9 -4 21 -2 27 4 9 9 12 9 12 -1 0 -9 4 -10 13 -5 20 15 83 10
79 -6 -2 -10 4 -8 19 5 13 12 19 14 14 5 -8 -13 -7 -13 8 -1 16 13 21 9 18
-14 -1 -5 6 -1 14 9 9 12 15 15 15 7 0 -9 4 -10 13 -5 17 13 82 10 80 -3 -2
-8 7 -7 24 2 18 10 32 11 45 4 13 -7 18 -6 18 3 0 6 7 3 15 -8 8 -10 15 -14
14 -9 -3 22 2 29 11 15 8 -12 10 -12 10 -1 0 11 3 11 18 0 9 -7 14 -9 9 -4 -6
7 37 28 77 38 6 1 21 14 34 30 13 15 29 24 35 20 7 -3 9 -3 5 1 -4 5 3 27 15
49 12 23 23 49 24 57 2 8 3 126 4 263 0 136 4 245 9 242 5 -3 12 -1 15 5 4 6
1 9 -6 8 -7 -2 -14 11 -16 30 l-4 32 56 0 c32 0 54 -4 50 -9 -3 -5 -1 -13 5
-16 6 -4 9 -1 8 7 -2 10 16 14 71 16 70 3 73 2 60 -15 -12 -16 -12 -17 2 -6 9
7 20 9 24 5 5 -4 5 -1 1 6 -5 9 4 12 34 12 23 0 39 -4 35 -9 -3 -5 -1 -13 5
-16 6 -4 9 -1 8 7 -2 10 25 14 117 18 99 4 127 9 163 28 67 35 114 98 127 171
2 14 5 148 5 297 l1 272 272 0 c151 0 292 5 316 10 25 6 49 8 55 5 5 -3 6 -1
2 5 -4 7 3 17 18 24 14 6 26 15 26 20 0 5 6 6 13 2 6 -4 9 -4 5 0 -3 4 5 24
18 44 14 19 27 47 31 61 3 14 11 29 17 33 7 5 7 8 -2 8 -7 0 -10 4 -7 10 3 5
6 262 5 571 0 411 -3 573 -12 603 -17 58 -102 141 -159 156 -49 14 -1115 20
-1189 8z"/>
<path d="M3113 1685 c0 -8 4 -15 9 -15 4 0 8 4 8 9 0 6 -4 12 -8 15 -5 3 -9
-1 -9 -9z"/>
<path d="M3155 1689 c-4 -6 -5 -12 -2 -15 2 -3 7 2 10 11 7 17 1 20 -8 4z"/>
<path d="M2575 1679 c-3 -4 2 -6 10 -5 21 3 28 13 10 13 -9 0 -18 -4 -20 -8z"/>
<path d="M2654 1678 c-4 -7 -4 -10 1 -6 4 4 15 2 24 -5 14 -11 14 -10 2 6 -16
20 -18 21 -27 5z"/>
<path d="M2839 1688 c-5 -18 -6 -38 -1 -34 7 8 12 36 6 36 -2 0 -4 -1 -5 -2z"/>
<path d="M2570 1656 c0 -2 8 -10 18 -17 15 -13 16 -12 3 4 -13 16 -21 21 -21
13z"/>
<path d="M3156 1633 c-6 -14 -5 -15 5 -6 7 7 10 15 7 18 -3 3 -9 -2 -12 -12z"/>
<path d="M2486 958 c3 -5 10 -6 15 -3 13 9 11 12 -6 12 -8 0 -12 -4 -9 -9z"/>
<path d="M2359 913 c-13 -16 -12 -17 4 -4 16 13 21 21 13 21 -2 0 -10 -8 -17
-17z"/>
<path d="M2395 920 c-3 -5 -1 -10 4 -10 6 0 11 5 11 10 0 6 -2 10 -4 10 -3 0
-8 -4 -11 -10z"/>
<path d="M1788 913 c7 -3 16 -2 19 1 4 3 -2 6 -13 5 -11 0 -14 -3 -6 -6z"/>
<path d="M1905 899 c-3 -4 2 -6 10 -5 21 3 28 13 10 13 -9 0 -18 -4 -20 -8z"/>
<path d="M1955 901 c-3 -5 -2 -12 3 -15 5 -3 9 1 9 9 0 17 -3 19 -12 6z"/>
<path d="M2145 899 c-3 -4 2 -6 10 -5 21 3 28 13 10 13 -9 0 -18 -4 -20 -8z"/>
<path d="M2196 901 c-3 -5 2 -15 12 -22 15 -12 16 -12 5 2 -7 9 -10 19 -6 22
3 4 4 7 0 7 -3 0 -8 -4 -11 -9z"/>
<path d="M1810 859 c0 -5 5 -7 10 -4 6 3 10 8 10 11 0 2 -4 4 -10 4 -5 0 -10
-5 -10 -11z"/>
<path d="M1926 858 c3 -5 10 -6 15 -3 13 9 11 12 -6 12 -8 0 -12 -4 -9 -9z"/>
<path d="M2006 858 c3 -5 10 -6 15 -3 13 9 11 12 -6 12 -8 0 -12 -4 -9 -9z"/>
<path d="M2090 860 c0 -5 5 -10 11 -10 5 0 7 5 4 10 -3 6 -8 10 -11 10 -2 0
-4 -4 -4 -10z"/>
<path d="M2250 866 c0 -2 7 -7 16 -10 8 -3 12 -2 9 4 -6 10 -25 14 -25 6z"/>
<path d="M2335 861 c-3 -5 -2 -12 3 -15 5 -3 9 1 9 9 0 17 -3 19 -12 6z"/>
<path d="M340 166 c0 -2 8 -10 18 -17 15 -13 16 -12 3 4 -13 16 -21 21 -21 13z"/>
<path d="M1193 147 c0 -8 6 -14 14 -14 9 0 10 4 2 14 -6 7 -12 13 -14 13 -1 0
-2 -6 -2 -13z"/>
<path d="M910 142 c0 -5 7 -9 15 -9 8 0 12 4 9 9 -7 10 -24 10 -24 0z"/>
<path d="M1139 138 c-5 -9 -5 -48 -1 -43 6 6 11 45 5 45 -2 0 -4 -1 -4 -2z"/>
<path d="M1095 120 c3 -5 8 -10 11 -10 2 0 4 5 4 10 0 6 -5 10 -11 10 -5 0 -7
-4 -4 -10z"/>
<path d="M1505 120 c-3 -6 1 -7 9 -4 18 7 21 14 7 14 -6 0 -13 -4 -16 -10z"/>
<path d="M1627 119 c7 -7 15 -10 18 -7 3 3 -2 9 -12 12 -14 6 -15 5 -6 -5z"/>
<path d="M735 111 c-3 -5 -2 -12 3 -15 5 -3 9 1 9 9 0 17 -3 19 -12 6z"/>
<path d="M1173 105 c0 -8 4 -12 9 -9 5 3 6 10 3 15 -9 13 -12 11 -12 -6z"/>
<path d="M435 99 c-3 -4 2 -6 10 -5 21 3 28 13 10 13 -9 0 -18 -4 -20 -8z"/>
<path d="M895 100 c3 -5 8 -10 11 -10 2 0 4 5 4 10 0 6 -5 10 -11 10 -5 0 -7
-4 -4 -10z"/>
<path d="M1250 99 c0 -5 5 -7 10 -4 6 3 10 8 10 11 0 2 -4 4 -10 4 -5 0 -10
-5 -10 -11z"/>
<path d="M1395 89 c-4 -6 -5 -12 -2 -15 2 -3 7 2 10 11 7 17 1 20 -8 4z"/>
<path d="M530 81 c0 -6 4 -13 10 -16 6 -3 7 1 4 9 -7 18 -14 21 -14 7z"/>
<path d="M1333 75 c0 -8 4 -12 9 -9 5 3 6 10 3 15 -9 13 -12 11 -12 -6z"/>
<path d="M1550 79 c0 -5 5 -7 10 -4 6 3 10 8 10 11 0 2 -4 4 -10 4 -5 0 -10
-5 -10 -11z"/>
</g>
</svg>
